<svg width="30" height="30" fill="none" xmlns="http://www.w3.org/2000/svg"><g clip-path="url(#clip0)" fill="#000"><path d="M29.79 10.777l-3.35-8.715A3.197 3.197 0 0022.234.258L5.485 7.201a3.182 3.182 0 00-1.767 4.072l.46 1.229H3.122A3.126 3.126 0 000 15.624v11.239a3.125 3.125 0 003.122 3.121H24.35a3.125 3.125 0 003.122-3.121v-11.24a3.07 3.07 0 00-.045-.505l.58-.235a3.207 3.207 0 001.783-4.106zM3.123 13.5H24.35a2.12 2.12 0 012.11 1.998H1.011a2.12 2.12 0 012.11-1.998zm5.02-3.009l3.339-1.67.686 1.717-3.338 1.67-.687-1.717zm18.332 16.37a2.125 2.125 0 01-2.123 2.123H3.12A2.125 2.125 0 011 26.863v-6.369h25.475v6.369zm0-7.367H.998v-2.997h25.475v2.997zm1.159-5.535l-.522.212a3.123 3.123 0 00-2.76-1.67H10.476l2.55-1.275a.5.5 0 00.24-.633l-1.06-2.647a.5.5 0 00-.686-.261l-4.236 2.12a.5.5 0 00-.24.632l.826 2.065H5.245l-.592-1.577a2.187 2.187 0 011.215-2.798l16.749-6.943a2.195 2.195 0 012.889 1.24l3.352 8.714a2.205 2.205 0 01-1.225 2.822z"/><path d="M17.968 27.581c.93.54 2.08.54 3.01 0a2.997 2.997 0 100-5.183 2.997 2.997 0 10-3.01 5.183zm3.846-4.468a1.98 1.98 0 01.663-.121 1.998 1.998 0 010 3.996 1.977 1.977 0 01-.663-.122 2.985 2.985 0 000-3.753zm-.835.569c.666.745.666 1.87 0 2.615a1.962 1.962 0 010-2.615zm-1.499-.69c.227.002.451.043.663.121a2.985 2.985 0 000 3.753 1.97 1.97 0 01-.663.122 1.998 1.998 0 010-3.996zm1.59-12.669l.406.913 4.765-2.118-.406-.913-4.765 2.118zm3.702-4.233l-6.883 3.177.418.907 6.883-3.177-.418-.907z"/></g><defs><clipPath id="clip0"><path fill="#fff" d="M0 0h30v30H0z"/></clipPath></defs></svg>