<svg width="15" height="15" fill="none" xmlns="http://www.w3.org/2000/svg"><g clip-path="url(#clip0)"><path d="M12.803 2.197A7.45 7.45 0 007.5 0C5.497 0 3.613.78 2.197 2.197A7.451 7.451 0 000 7.5a7.45 7.45 0 002.197 5.303A7.45 7.45 0 007.5 15a7.45 7.45 0 005.303-2.197A7.45 7.45 0 0015 7.5a7.45 7.45 0 00-2.197-5.303zm-2.06 7.511a.732.732 0 01-1.035 1.036L7.5 8.536l-2.208 2.208a.73.73 0 01-1.036 0 .732.732 0 010-1.036L6.464 7.5 4.256 5.292a.733.733 0 011.036-1.036L7.5 6.464l2.208-2.208a.732.732 0 111.036 1.036L8.536 7.5l2.208 2.208z" fill="#000"/></g><defs><clipPath id="clip0"><path fill="#fff" d="M0 0h15v15H0z"/></clipPath></defs></svg>