<svg width="50" height="50" fill="none" xmlns="http://www.w3.org/2000/svg"><g clip-path="url(#clip0)" fill="#707070"><path d="M47.023 30.357l-3.5-6.874a.977.977 0 00-.87-.534H7.346a.977.977 0 00-.87.534l-3.5 6.874a.977.977 0 00.87 1.42h1.22v17.247c0 .54.437.977.977.977h37.91c.54 0 .977-.438.977-.977V31.777h1.222a.977.977 0 00.871-1.42zm-4.97-5.454l2.506 4.92h-15.46l-2.506-4.92h15.46zm-34.108 0h15.46l-2.504 4.92H5.44l2.504-4.92zm35.031 23.144h-17v-5.415a.977.977 0 00-1.954 0v5.415H7.02v-16.27H21.5a.977.977 0 00.87-.533l1.652-3.245v5.859a.977.977 0 001.955 0v-5.86l1.651 3.246a.977.977 0 00.871.533h14.477v16.27z"/><path d="M16.644 42.695h-5.563a.977.977 0 100 1.954h5.563a.977.977 0 000-1.954zM25 20.075c5.529 0 10.026-4.503 10.026-10.039C35.026 4.502 30.528 0 25 0c-5.53 0-10.03 4.502-10.03 10.036 0 5.536 4.5 10.04 10.03 10.04zm0-18.12c4.451 0 8.072 3.625 8.072 8.081 0 4.458-3.62 8.085-8.072 8.085-4.453 0-8.075-3.627-8.075-8.085 0-4.456 3.622-8.082 8.075-8.082z"/><path d="M20.619 11.502l2.6 2.204a.977.977 0 001.381-.118l4.894-5.85a.977.977 0 00-1.498-1.253l-4.263 5.095-1.85-1.569a.977.977 0 10-1.264 1.49zm-14.814-.489h4.228a.977.977 0 000-1.954H5.805a.977.977 0 000 1.954zM5.35 4.214l4.227 2.23a.977.977 0 10.912-1.728L6.26 2.486a.977.977 0 10-.911 1.728zm-.41 12.963a.977.977 0 001.32.409l4.228-2.227a.977.977 0 00-.91-1.729L5.35 15.857a.977.977 0 00-.41 1.32zm35.023-6.164h4.228a.977.977 0 000-1.954h-4.228a.977.977 0 000 1.954zm.001-4.456c.154 0 .31-.036.455-.113l4.228-2.23a.977.977 0 10-.912-1.728l-4.227 2.23a.977.977 0 00.456 1.841zm-.456 8.803l4.227 2.226a.977.977 0 10.91-1.729L40.42 13.63a.977.977 0 10-.91 1.73zm-14.51 21.908a.977.977 0 00-.977.977v.005c0 .54.438.974.977.974a.98.98 0 000-1.956z"/></g><defs><clipPath id="clip0"><path fill="#fff" d="M0 0h50v50H0z"/></clipPath></defs></svg>