<svg width="198" height="26" fill="none" xmlns="http://www.w3.org/2000/svg"><path d="M22.356 25.36c-1.128 0-2.304-.3-3.528-.9-1.224-.623-2.628-1.763-4.212-3.42l-7.56-7.92V25h-3.24V5.56c0-1.223-.168-2.123-.504-2.7-.336-.6-1.008-.9-2.016-.9h-.72v-.72h3.24c.888 0 1.548.12 1.98.36.456.217.78.625.972 1.225.192.6.288 1.512.288 2.736v7.02l7.56-7.56.72-.756c.672-.696 1.236-1.236 1.692-1.62a5.786 5.786 0 011.62-1.008c.624-.264 1.32-.396 2.088-.396h1.8v.9c-1.008 0-1.884.18-2.628.54-.744.336-1.608.996-2.592 1.98l-7.02 7.02 8.28 8.64c1.056 1.08 2.124 1.992 3.204 2.736 1.08.72 2.052 1.14 2.916 1.26V25c-.72.24-1.5.36-2.34.36zm24.399-.18c-1.152 0-2.291-.311-3.42-.935-1.127-.648-2.028-1.896-2.7-3.744l-.9-2.34h-10.08L26.776 25h-1.62l10.08-23.76h1.08l7.92 19.26c.6 1.392 1.165 2.352 1.693 2.88.528.504 1.284.804 2.268.9V25a5.38 5.38 0 01-1.44.18zm-7.74-8.46l-4.32-10.44-4.5 10.44h8.82zm8.62-11.267c-.6-1.392-1.164-2.34-1.692-2.844-.528-.528-1.284-.84-2.268-.936v-.72c.12 0 .3-.012.54-.036a6.2 6.2 0 01.684-.036c1.2 0 2.352.312 3.456.936 1.104.6 2.04 1.812 2.808 3.636l6.156 14.508 7.92-18.72h1.728L56.635 25.36h-.648L47.635 5.453zm39.48 19.727c-1.152 0-2.292-.311-3.42-.935-1.128-.648-2.028-1.896-2.7-3.744l-.9-2.34h-10.08L67.135 25h-1.62l10.08-23.76h1.08l7.92 19.26c.6 1.392 1.164 2.352 1.692 2.88.528.504 1.284.804 2.268.9V25c-.432.12-.912.18-1.44.18zm-7.74-8.46l-4.32-10.44-4.5 10.44h8.82zM91.39 5.56c0-1.223-.168-2.123-.504-2.7-.336-.6-1.008-.9-2.016-.9h-.72v-.72h3.24c.888 0 1.548.12 1.98.36.456.217.78.625.972 1.225.192.6.288 1.512.288 2.736v18h12.78V25H91.39V5.56zm19.407 0c0-1.223-.168-2.123-.504-2.7-.336-.6-1.008-.9-2.016-.9h-.72v-.72h15.336c2.04 0 3.06.96 3.06 2.88v2.7h-.72c0-2.76-1.5-4.14-4.5-4.14h-6.696v9.36h9.72v1.44h-9.72v10.08h6.3c1.656 0 2.952-.3 3.888-.9.936-.6 1.68-1.62 2.232-3.06l.72.18-1.26 3.42c-.432 1.2-1.332 1.8-2.7 1.8h-12.42V5.56zm37.038 19.8c-1.248 0-2.352-.371-3.312-1.115-.936-.768-1.98-2.136-3.132-4.104l-3.6-6.12h-2.52V25h-3.24V5.56c0-1.224-.168-2.124-.504-2.7-.336-.6-1.008-.9-2.016-.9h-.72v-.72h9.36c2.256 0 4.32.456 6.192 1.368 1.872.888 2.808 2.58 2.808 5.076 0 1.872-.552 3.276-1.656 4.212-1.08.912-2.448 1.56-4.104 1.944l3.78 6.3c.888 1.488 1.68 2.532 2.376 3.132.72.576 1.548.912 2.484 1.008V25c-.216.096-.528.18-.936.252a7.238 7.238 0 01-1.26.108zm-9.972-12.6c.792 0 1.632-.18 2.52-.54a5.332 5.332 0 002.232-1.691c.624-.768.936-1.728.936-2.88s-.312-2.112-.936-2.88a5.595 5.595 0 00-2.268-1.692c-.864-.384-1.692-.576-2.484-.576-.768 0-1.632.12-2.592.36v9.9h2.592zm34.118 12.6c-1.128 0-2.304-.3-3.528-.9-1.224-.623-2.628-1.763-4.212-3.42l-7.56-7.92V25h-3.24V5.56c0-1.223-.168-2.123-.504-2.7-.336-.6-1.008-.9-2.016-.9h-.72v-.72h3.24c.888 0 1.548.12 1.98.36.456.217.78.625.972 1.225.192.6.288 1.512.288 2.736v7.02l7.56-7.56.72-.756c.672-.696 1.236-1.236 1.692-1.62a5.786 5.786 0 011.62-1.008c.624-.264 1.32-.396 2.088-.396h1.8v.9c-1.008 0-1.884.18-2.628.54-.744.336-1.608.996-2.592 1.98l-7.02 7.02 8.28 8.64c1.056 1.08 2.124 1.992 3.204 2.736 1.08.72 2.052 1.14 2.916 1.26V25c-.72.24-1.5.36-2.34.36zm24.399-.18c-1.152 0-2.292-.311-3.42-.935-1.128-.648-2.028-1.896-2.7-3.744l-.9-2.34h-10.08L176.4 25h-1.62l10.08-23.76h1.08l7.92 19.26c.6 1.392 1.164 2.352 1.692 2.88.528.504 1.284.804 2.268.9V25c-.432.12-.912.18-1.44.18zm-7.74-8.46l-4.32-10.44-4.5 10.44h8.82z" fill="#000"/></svg>