<svg width="20" height="20" fill="none" xmlns="http://www.w3.org/2000/svg"><g clip-path="url(#clip0)" fill="#6D828D"><path d="M15.82 5.352h.39v.39a.586.586 0 001.173 0v-.39h.39a.586.586 0 100-1.172h-.39v-.39a.586.586 0 10-1.172 0v.39h-.39a.586.586 0 000 1.172zM2.148 2.93h.391v.39a.586.586 0 001.172 0v-.39h.39a.586.586 0 000-1.172h-.39v-.39a.586.586 0 00-1.172 0v.39h-.39a.586.586 0 000 1.172zm16.485 13.75h-.39v-.39a.586.586 0 00-1.173 0v.39h-.39a.586.586 0 100 1.172h.39v.39a.586.586 0 001.172 0v-.39h.39a.586.586 0 000-1.172z"/><path d="M19.872 9.881a.586.586 0 00-.61-.2 6.19 6.19 0 01-1.606.22 6.181 6.181 0 01-6.175-6.175 6.1 6.1 0 01.71-2.868.586.586 0 00-.671-.839A7.353 7.353 0 006.5 9.548a4.11 4.11 0 00-3.204 3.656A3.402 3.402 0 000 16.6a3.402 3.402 0 003.398 3.398h7.97a3.872 3.872 0 003.866-3.867c0-.653-.162-1.268-.449-1.807a7.312 7.312 0 002.625-1.046 7.39 7.39 0 002.523-2.76.586.586 0 00-.061-.638zm-8.505 8.946H3.398a2.23 2.23 0 01-2.226-2.226 2.23 2.23 0 012.226-2.227c.12 0 .244.012.383.036a.585.585 0 00.684-.623 3.041 3.041 0 01-.012-.233 2.93 2.93 0 015.806-.547c.06.312.357.52.67.469.162-.027.305-.04.438-.04a2.698 2.698 0 012.695 2.696 2.698 2.698 0 01-2.695 2.695zm2.584-5.57a3.852 3.852 0 00-2.675-.991 4.104 4.104 0 00-3.553-2.8 6.18 6.18 0 012.899-7.852 7.339 7.339 0 00-.312 2.112c0 4.05 3.295 7.346 7.346 7.346.171 0 .344-.006.518-.02a6.194 6.194 0 01-4.223 2.205z"/></g><defs><clipPath id="clip0"><path fill="#fff" d="M0 0h20v20H0z"/></clipPath></defs></svg>