<svg width="50" height="50" fill="none" xmlns="http://www.w3.org/2000/svg"><g clip-path="url(#clip0)"><path d="M50 8.574l-.001-.016a.724.724 0 00-.004-.065l-.004-.023a.724.724 0 00-.011-.058l-.006-.022a.707.707 0 00-.02-.061l-.003-.012-1.987-5.086a1.319 1.319 0 00-1.236-.843h-3.617a.714.714 0 100 1.428h3.548l1.581 4.047H33.292l-.937-4.048h5.521a.714.714 0 100-1.427H8.992c-.55 0-1.036.33-1.236.844L5.77 8.317l-.003.012a.701.701 0 00-.037.141c0 .008-.002.016-.003.023a.739.739 0 00-.005.065v10.509a.714.714 0 001.427 0V9.29h15.134v10.852a1.082 1.082 0 001.797.81l3.781-3.35 3.782 3.35a1.082 1.082 0 001.796-.81V9.291h15.134v32.024a.93.93 0 01-.93.929h-13.09l-.001-.024a3.083 3.083 0 00-.009-.192 2.573 2.573 0 003.035-1.514 2.552 2.552 0 00-.093-2.14l-.015-.031a2.587 2.587 0 00-.092-.16l-.019-.03a2.569 2.569 0 00-.106-.154l-.003-.003a2.536 2.536 0 00-.117-.144l-.022-.025a2.531 2.531 0 00-.126-.13l-.026-.025a2.492 2.492 0 00-.293-.237l-.027-.019a2.622 2.622 0 00-.155-.096l-.013-.008c.302-.261.54-.592.695-.972a2.552 2.552 0 00-.011-1.967 2.55 2.55 0 00-1.398-1.382l-11.112-4.53 5.173-1.602a2.346 2.346 0 001.544-2.926 2.293 2.293 0 00-.783-1.13 2.404 2.404 0 00-1.972-.463l-.01.002c-.04.009-4.005.9-8.146 1.708a202.402 202.402 0 01-2.047.389c-5.201.958-6.662.975-7.068.92a.638.638 0 01-.022-.003l-.012-.002-.008-.002a.557.557 0 01-.06-.014l-.117-.047.145-.358a1.412 1.412 0 00-.14-1.335 1.412 1.412 0 00-.64-.518l-3.834-1.563a1.412 1.412 0 00-1.088.006c-.35.147-.621.422-.765.773l-4.689 11.5a1.423 1.423 0 00.78 1.853l3.835 1.564a1.424 1.424 0 001.853-.78l.034-.086.885.36h.001a7.841 7.841 0 013.15 2.352 9.277 9.277 0 003.726 2.78l.995.405H8.078a.93.93 0 01-.93-.93v-1.806a.714.714 0 10-1.428 0v1.807a2.36 2.36 0 002.358 2.357h10.788l9.197 3.75a2.573 2.573 0 003.524-2.654c.478.07.974.006 1.424-.188a2.546 2.546 0 001.105-.908h13.527A2.36 2.36 0 0050 41.315V8.574zM24.83 3.816h6.06l.936 4.047h-7.932l.937-4.048zm-2.4 4.046H7.479l1.582-4.048h14.304l-.936 4.048zm9.581 11.508l-3.433-3.042a1.078 1.078 0 00-1.433 0l-3.434 3.042V9.291h8.3v10.08zM5.252 35.888L1.43 34.329l4.684-11.488 3.823 1.56-4.685 11.487zm28.524 4.309l-.82-.335h-.001l-8.534-3.48a.714.714 0 00-.54 1.322l8.535 3.48c.035.014.07.03.103.048l.027.016c.024.014.047.027.07.042l.03.023c.02.014.04.027.059.043.01.009.02.02.032.029l.049.044.03.034a.48.48 0 01.043.047l.03.038.035.048c.01.014.018.029.027.043l.03.05.023.046.025.05.019.05.02.051.014.053.014.051.01.054c.003.018.007.035.009.053l.005.054.004.055v.054c0 .018 0 .037-.002.055 0 .018-.003.036-.005.053l-.007.057-.01.053c-.005.019-.008.038-.014.057-.004.017-.01.034-.015.05-.007.02-.012.039-.02.058a1.142 1.142 0 00-.017.039l-.003.01a1.11 1.11 0 01-.586.577 1.208 1.208 0 01-.93.012l-1.512-.616-.021-.008-.021-.01-6.941-2.83a.714.714 0 10-.54 1.322l6.942 2.83c.007.004.015.006.022.009l.02.009a1.142 1.142 0 01-.861 2.113l-9.326-3.802-.001-.001-4.367-1.78a7.84 7.84 0 01-3.151-2.352 9.277 9.277 0 00-3.725-2.78l-.886-.36L8.91 30.7l1.667-4.087.123.05c.115.047.28.114.725.131.554.025 1.473-.033 3.117-.265 1.119-.158 2.49-.387 4.093-.681l.118-.022.227-.042.178-.033.206-.039.221-.042.18-.034.275-.053.143-.027.431-.083c4.128-.803 8.111-1.697 8.29-1.737l.054-.008c.458-.068.908.197 1.04.625a.914.914 0 01-.602 1.142l-7.08 2.19a.713.713 0 00-.058 1.344l12.96 5.284c.282.115.502.333.62.614.118.281.12.592.005.874a1.134 1.134 0 01-1.05.71h-.007a.916.916 0 01-.104-.005c-.01 0-.02-.003-.03-.004a1.097 1.097 0 01-.08-.011l-.05-.012c-.019-.005-.039-.009-.058-.015l-.06-.02-.048-.017-8.534-3.48a.714.714 0 10-.54 1.322l10.348 4.219a1.132 1.132 0 01.62.614 1.132 1.132 0 01-.309 1.307l-.019.017a1.144 1.144 0 01-1.154.175l-.992-.404z" fill="#000"/></g><defs><clipPath id="clip0"><path fill="#fff" d="M0 0h50v50H0z"/></clipPath></defs></svg>