<svg width="50" height="50" fill="none" xmlns="http://www.w3.org/2000/svg"><path d="M40.92 33.37h-5.01v1.673h5.01V33.37zm-6.68 0h-5.012v1.673h5.011V33.37zm-6.682 0h-5.011v1.673h5.01V33.37z" fill="#000"/><path d="M49.26 17.303L32.736.741A2.492 2.492 0 0030.96 0h-.008c-.662 0-1.297.267-1.761.74L11.663 18.306H2.505A2.508 2.508 0 000 20.815V44.25a2.508 2.508 0 002.505 2.51h12.373l2.492 2.5c.47.475 1.109.742 1.775.741h.007a2.47 2.47 0 001.762-.74l2.497-2.5h19.18a2.508 2.508 0 002.504-2.511V25.03l4.16-4.17a2.504 2.504 0 00.004-3.556zm-10.623-8.28l-9.262 9.282h-7.091L35.09 5.47l3.546 3.554zm-8.263-7.102a.822.822 0 011.165-.014l.014.014 2.357 2.366-13.989 14.018h-5.896L30.375 1.92zM19.732 48.079a.812.812 0 01-.585.251.834.834 0 01-.594-.25l-1.312-1.32h3.808l-1.317 1.32zm23.693-3.83a.836.836 0 01-.835.837H2.505a.836.836 0 01-.835-.837V32.532h41.755V44.25zm0-13.39H1.67v-5.022h41.755v5.021zm0-6.696H1.67v-3.348c0-.462.374-.836.835-.836H42.59c.461 0 .835.374.835.837v3.347zm4.654-4.492l-2.984 2.99v-1.846a2.508 2.508 0 00-2.505-2.51H31.734l8.08-8.098 8.262 8.28c.16.157.25.373.25.598a.82.82 0 01-.247.586z" fill="#000"/><path d="M8.01 43.435c.122-.106.236-.22.341-.343a3.306 3.306 0 004.396.568c.9-.63 1.44-1.658 1.45-2.759a3.344 3.344 0 00-3.34-3.347 2.521 2.521 0 00-.495.042l-.021.005h-.025a3.3 3.3 0 00-1.965 1.112 3.335 3.335 0 00-4.711-.343 3.352 3.352 0 00-.342 4.722 3.335 3.335 0 004.712.343zm2.636-4.19a.93.93 0 01.21-.017c.923 0 1.67.749 1.67 1.673 0 .354-.115.699-.327.982-.03.041-.054.084-.088.126-.006.007-.014.011-.02.018a1.66 1.66 0 01-1.234.548 1.672 1.672 0 01-1.642-1.702c.014-.82.62-1.51 1.43-1.628zm-4.8-.017c.923 0 1.67.749 1.67 1.673 0 .925-.747 1.674-1.67 1.674-.922 0-1.67-.75-1.67-1.674 0-.924.748-1.674 1.67-1.674z" fill="#000"/></svg>