<svg width="50" height="50" fill="none" xmlns="http://www.w3.org/2000/svg"><path d="M33.594 9.375h-3.125V7.031a5.469 5.469 0 00-10.938 0v2.344h-3.125a.781.781 0 00-.781.781v17.188a2.351 2.351 0 002.344 2.343h10.156v-1.562H17.969a.781.781 0 01-.782-.781v-.782h10.938V25H17.187V10.937h2.344v2.344h1.563v-2.344h7.812v2.344h1.563v-2.344h2.343v2.344h1.563v-3.125a.781.781 0 00-.781-.781zm-4.688 0h-7.812V7.031a3.906 3.906 0 117.812 0v2.344z" fill="#707070"/><path d="M44.531 14.844H30.47a.781.781 0 00-.782.781v11.719a2.351 2.351 0 002.344 2.343H42.97a2.351 2.351 0 002.343-2.343V15.625a.781.781 0 00-.78-.781zm-.781 12.5a.781.781 0 01-.781.781H32.03a.781.781 0 01-.781-.781v-.782h12.5v.782zm0-2.344h-12.5v-8.594h12.5V25z" fill="#707070"/><path d="M37.5 23.438a3.91 3.91 0 003.906-3.907V17.97h-1.562v1.562a2.344 2.344 0 01-4.688 0V17.97h-1.562v1.562a3.91 3.91 0 003.906 3.907zm11.196 11.367a3.21 3.21 0 00-4.044-1.611l-6.976 2.539a3.125 3.125 0 00-2.48-2.312l-9.424-1.661a11.732 11.732 0 00-6.043.528l-1.214.447c-1.141.417-2.219.99-3.203 1.702l-.173-.474a.783.783 0 00-1-.47l-8.81 3.204a.781.781 0 00-.47 1l-3.671 1.337.534 1.468 3.672-1.336 3.186 8.756 1.468-.534-3.45-9.49 7.344-2.671 4.009 11.015-1.875.684.534 1.467 2.608-.953a.782.782 0 00.469-1.002l-.268-.734 1.797-.655a8.548 8.548 0 013.534-.498l3.706.257a10.034 10.034 0 004.176-.588l14.281-5.198a3.126 3.126 0 001.782-4.219l.001.002zm-1.436 1.94a1.55 1.55 0 01-.88.808l-14.282 5.199a8.51 8.51 0 01-3.533.497l-3.706-.257a10.123 10.123 0 00-4.175.589l-1.802.655-3.012-8.275a11.66 11.66 0 013.18-1.762l1.212-.442a10.168 10.168 0 015.239-.458l9.42 1.661a1.562 1.562 0 11-.542 3.078l-8.463-1.492-.272 1.539 8.463 1.492a3.11 3.11 0 003.52-2.164l7.557-2.751a1.665 1.665 0 012.083.781 1.571 1.571 0 01-.007 1.302z" fill="#707070"/></svg>