<svg width="20" height="20" fill="none" xmlns="http://www.w3.org/2000/svg"><path d="M19.547 0H.453A.453.453 0 000 .452v19.096c0 .25.203.452.452.452h19.096c.25 0 .452-.203.452-.453V.453A.453.453 0 0019.547 0zm-.452 19.095H.905V.905h18.19v18.19z" fill="#B0B0B0"/><path d="M1.424 9.765l-.007.011a.45.45 0 00-.042.1l-.003.013a.432.432 0 00-.009.042l-.002.014a.461.461 0 000 .11l.002.014a.462.462 0 00.009.042l.003.013a.46.46 0 00.042.1l.007.01a.46.46 0 00.023.035l.008.012a.44.44 0 00.035.04l.004.002a.456.456 0 00.087.066l.005.004.008.005 2.93 1.665a.45.45 0 00.618-.17.452.452 0 00-.17-.617l-1.45-.824h6.025v6.026l-.823-1.45a.452.452 0 10-.787.447l1.67 2.938c0 .003.002.004.003.006a.447.447 0 00.025.038l.01.012c.01.013.02.026.032.038l.003.002a.452.452 0 00.04.035l.01.009a.439.439 0 00.036.023l.01.007a.448.448 0 00.155.054l.014.002a.436.436 0 00.11 0l.014-.002a.444.444 0 00.154-.054l.011-.006a.433.433 0 00.035-.024l.011-.009a.46.46 0 00.04-.035l.003-.002a.453.453 0 00.033-.038l.009-.012a.455.455 0 00.024-.038l.004-.006 1.67-2.938a.452.452 0 10-.787-.447l-.824 1.45V3.522l.824 1.45a.452.452 0 10.787-.447l-1.67-2.939c0-.002-.002-.003-.004-.006a.453.453 0 00-.024-.037l-.01-.012a.426.426 0 00-.032-.038l-.003-.002a.447.447 0 00-.04-.036l-.01-.008a.437.437 0 00-.036-.024l-.01-.006a.447.447 0 00-.1-.042l-.013-.003a.454.454 0 00-.042-.009l-.014-.002a.445.445 0 00-.11 0l-.014.002a.454.454 0 00-.042.009l-.013.003a.448.448 0 00-.1.042l-.01.006a.444.444 0 00-.035.024l-.012.008a.467.467 0 00-.04.035l-.002.003a.475.475 0 00-.033.038l-.009.012a.455.455 0 00-.025.037l-.003.006-1.67 2.939a.452.452 0 10.787.447l.823-1.45v6.025H3.522l1.45-.823a.452.452 0 10-.447-.787l-2.93 1.665h-.001l-.008.005c-.002 0-.003.002-.005.003a.46.46 0 00-.087.067l-.004.003a.453.453 0 00-.035.04l-.008.01a.486.486 0 00-.023.035z" fill="#B0B0B0"/><path d="M15.029 8.724l1.449.824h-5.12a.453.453 0 000 .905h5.12l-1.45.823a.452.452 0 10.448.787l2.93-1.665.008-.004.006-.004a.455.455 0 00.087-.066l.003-.003a.436.436 0 00.035-.04l.009-.012a.422.422 0 00.023-.034l.007-.011a.452.452 0 00.041-.1l.004-.013a.401.401 0 00.008-.041l.002-.015a.455.455 0 000-.11l-.002-.014a.472.472 0 00-.008-.042l-.004-.013a.45.45 0 00-.041-.1l-.007-.01a.428.428 0 00-.023-.035l-.01-.011a.446.446 0 00-.034-.04l-.003-.003a.457.457 0 00-.087-.066l-.006-.004-.008-.004-2.93-1.665a.452.452 0 10-.447.786z" fill="#B0B0B0"/></svg>