<?xml version="1.0" encoding="utf-8"?><svg viewBox="0 0 198 50" xmlns="http://www.w3.org/2000/svg" xmlns:xlink="http://www.w3.org/1999/xlink"><style>:root>svg{display:none}:root>svg:target{display:block}</style><svg viewBox="0 0 12 12" id="add" xmlns="http://www.w3.org/2000/svg"><path d="M6.023 0C2.728 0 0 2.681 0 5.977 0 9.272 2.728 12 6.023 12 9.32 12 12 9.272 12 5.977A5.983 5.983 0 006.023 0zm3.165 6.68H6.726v2.508a.704.704 0 01-1.407 0V6.68H2.812a.704.704 0 010-1.407H5.32v-2.46a.704.704 0 011.407 0v2.46h2.46a.704.704 0 010 1.407z"/></svg><svg viewBox="0 0 10 6" id="arrow-down" xmlns="http://www.w3.org/2000/svg"><path d="M5 5.777a.713.713 0 01-.495-.197l-4.3-4.134a.655.655 0 010-.952.72.72 0 01.99 0L5 4.152 8.805.494a.72.72 0 01.99 0 .655.655 0 010 .952l-4.3 4.134A.713.713 0 015 5.777z"/></svg><svg viewBox="0 0 7 12" id="arrow-left" xmlns="http://www.w3.org/2000/svg"><path d="M0 6c0-.215.084-.43.252-.594l5.28-5.16a.874.874 0 011.216 0 .827.827 0 010 1.189L2.076 6l4.672 4.565a.827.827 0 010 1.189.874.874 0 01-1.216 0l-5.28-5.16A.828.828 0 010 6z"/></svg><svg viewBox="0 0 10 10" id="arrow-navigate-down" xmlns="http://www.w3.org/2000/svg"><g clip-path="url(#clip0)"><path d="M5 7.85a.698.698 0 01-.495-.205l-4.3-4.3a.7.7 0 11.99-.99L5 6.16l3.804-3.805a.7.7 0 01.99.99l-4.299 4.3A.698.698 0 015 7.85z"/></g></svg><svg viewBox="0 0 10 10" id="arrow-navigate-top" xmlns="http://www.w3.org/2000/svg"><g clip-path="url(#clip0)"><path d="M5 2.15c.18 0 .358.069.495.205l4.3 4.3a.7.7 0 11-.99.99L5 3.842 1.196 7.645a.7.7 0 11-.99-.99l4.299-4.3A.698.698 0 015 2.15z"/></g></svg><svg viewBox="0 0 12 20" id="arrow-right" xmlns="http://www.w3.org/2000/svg"><path d="M11.7 9.998c0 .359-.137.717-.41.99l-8.6 8.6a1.4 1.4 0 01-1.981-1.98l7.61-7.61L.708 2.39A1.4 1.4 0 012.69.41l8.6 8.599c.273.273.41.632.41.99z"/></svg><svg viewBox="0 0 10 10" id="arrow-top" xmlns="http://www.w3.org/2000/svg"><g clip-path="url(#clip0)"><path d="M5 2.15c.18 0 .358.069.495.205l4.3 4.3a.7.7 0 11-.99.99L5 3.842 1.196 7.645a.7.7 0 11-.99-.99l4.299-4.3A.698.698 0 015 2.15z"/></g></svg><svg viewBox="0 0 10 10" id="check" xmlns="http://www.w3.org/2000/svg"><g clip-path="url(#clip0)"><path d="M9.707 3.07L4.432 8.345c-.391.39-1.025.39-1.416 0L.293 5.62a1 1 0 011.415-1.415l2.016 2.016 4.568-4.568A1 1 0 019.707 3.07z"/></g></svg><svg viewBox="0 0 15 15" id="delete" xmlns="http://www.w3.org/2000/svg"><g clip-path="url(#clip0)"><path d="M12.803 2.197A7.45 7.45 0 007.5 0C5.497 0 3.613.78 2.197 2.197A7.451 7.451 0 000 7.5a7.45 7.45 0 002.197 5.303A7.45 7.45 0 007.5 15a7.45 7.45 0 005.303-2.197A7.45 7.45 0 0015 7.5a7.45 7.45 0 00-2.197-5.303zm-2.06 7.511a.732.732 0 01-1.035 1.036L7.5 8.536l-2.208 2.208a.73.73 0 01-1.036 0 .732.732 0 010-1.036L6.464 7.5 4.256 5.292a.733.733 0 011.036-1.036L7.5 6.464l2.208-2.208a.732.732 0 111.036 1.036L8.536 7.5l2.208 2.208z"/></g></svg><svg viewBox="0 0 50 50" id="delivery-box" xmlns="http://www.w3.org/2000/svg"><g clip-path="url(#clip0)"><path d="M47.023 30.357l-3.5-6.874a.977.977 0 00-.87-.534H7.346a.977.977 0 00-.87.534l-3.5 6.874a.977.977 0 00.87 1.42h1.22v17.247c0 .54.437.977.977.977h37.91c.54 0 .977-.438.977-.977V31.777h1.222a.977.977 0 00.871-1.42zm-4.97-5.454l2.506 4.92h-15.46l-2.506-4.92h15.46zm-34.108 0h15.46l-2.504 4.92H5.44l2.504-4.92zm35.031 23.144h-17v-5.415a.977.977 0 00-1.954 0v5.415H7.02v-16.27H21.5a.977.977 0 00.87-.533l1.652-3.245v5.859a.977.977 0 001.955 0v-5.86l1.651 3.246a.977.977 0 00.871.533h14.477v16.27z"/><path d="M16.644 42.695h-5.563a.977.977 0 100 1.954h5.563a.977.977 0 000-1.954zM25 20.075c5.529 0 10.026-4.503 10.026-10.039C35.026 4.502 30.528 0 25 0c-5.53 0-10.03 4.502-10.03 10.036 0 5.536 4.5 10.04 10.03 10.04zm0-18.12c4.451 0 8.072 3.625 8.072 8.081 0 4.458-3.62 8.085-8.072 8.085-4.453 0-8.075-3.627-8.075-8.085 0-4.456 3.622-8.082 8.075-8.082z"/><path d="M20.619 11.502l2.6 2.204a.977.977 0 001.381-.118l4.894-5.85a.977.977 0 00-1.498-1.253l-4.263 5.095-1.85-1.569a.977.977 0 10-1.264 1.49zM5.805 11.013h4.228a.977.977 0 000-1.954H5.805a.977.977 0 000 1.954zM5.35 4.214l4.227 2.23a.977.977 0 10.912-1.728L6.26 2.486a.977.977 0 10-.911 1.728zM4.94 17.177a.977.977 0 001.32.409l4.228-2.227a.977.977 0 00-.91-1.729L5.35 15.857a.977.977 0 00-.41 1.32zM39.963 11.013h4.228a.977.977 0 000-1.954h-4.228a.977.977 0 000 1.954zM39.964 6.557c.154 0 .31-.036.455-.113l4.228-2.23a.977.977 0 10-.912-1.728l-4.227 2.23a.977.977 0 00.456 1.841zM39.508 15.36l4.227 2.226a.977.977 0 10.91-1.729L40.42 13.63a.977.977 0 10-.91 1.73zM24.998 37.268a.977.977 0 00-.977.977v.005c0 .54.438.974.977.974a.98.98 0 000-1.956z"/></g></svg><svg viewBox="0 0 15 10" id="eye" xmlns="http://www.w3.org/2000/svg"><g opacity=".5"><path d="M14.905 4.695C14.77 4.503 11.578 0 7.5 0S.229 4.503.095 4.695a.537.537 0 000 .61C.23 5.497 3.422 10 7.5 10s7.27-4.503 7.405-4.695a.536.536 0 000-.61zM7.5 8.965C4.496 8.966 1.895 5.978 1.124 5c.77-.978 3.366-3.966 6.376-3.966 3.004 0 5.605 2.989 6.376 3.966-.77.978-3.366 3.966-6.376 3.966z"/><path d="M7.5 1.898c-1.636 0-2.967 1.393-2.967 3.104S5.864 8.105 7.5 8.105c1.636 0 2.967-1.392 2.967-3.103 0-1.711-1.33-3.104-2.967-3.104zm0 5.173c-1.09 0-1.978-.928-1.978-2.07 0-1.14.888-2.068 1.978-2.068 1.09 0 1.978.928 1.978 2.069 0 1.14-.887 2.069-1.978 2.069z"/></g></svg><svg viewBox="0 0 30 30" id="facebook" xmlns="http://www.w3.org/2000/svg"><path d="M30 15c0-8.285-6.715-15-15-15S0 6.715 0 15s6.715 15 15 15c.088 0 .176 0 .264-.006V18.322H12.04v-3.756h3.223v-2.765c0-3.205 1.957-4.951 4.816-4.951 1.371 0 2.549.1 2.889.146v3.352H21c-1.553 0-1.857.738-1.857 1.822v2.39h3.72l-.486 3.756h-3.234V29.42C25.413 27.62 30 21.85 30 15z"/></svg><svg viewBox="0 0 50 50" id="fashion" xmlns="http://www.w3.org/2000/svg"><g clip-path="url(#clip0)"><path d="M49.764 17.978l-8.065-8.064a.807.807 0 00-.425-.223l-8.871-1.613a.806.806 0 00-.951.793 4.78 4.78 0 01-.069.764l-5.576-1.393v-.258a4.032 4.032 0 10-4.839-3.952h1.613a2.42 2.42 0 112.42 2.42.806.806 0 00-.807.806v.983l-5.577 1.394a4.79 4.79 0 01-.068-.764.806.806 0 00-.951-.793l-8.87 1.613a.807.807 0 00-.427.223L.237 17.978a.806.806 0 000 1.14l6.451 6.452a.806.806 0 001.14 0l1.85-1.85v5.312H4.033a4.02 4.02 0 00-2.395 7.258 3.995 3.995 0 000 6.452A4.02 4.02 0 004.033 50h29.032a.806.806 0 00.57-.237l6.452-6.451a.799.799 0 00.228-.57h.008V23.72l1.849 1.849a.806.806 0 001.14 0l6.452-6.452a.806.806 0 000-1.14zM25 9.702l5.865 1.466A6.58 6.58 0 0125 14.415a6.58 6.58 0 01-5.864-3.247L25 9.702zM1.613 33.064a2.42 2.42 0 012.42-2.42h17.741a2.42 2.42 0 110 4.84H4.034a2.42 2.42 0 01-2.42-2.42zm0 6.452a2.42 2.42 0 012.42-2.42h17.741a2.42 2.42 0 110 4.84H4.034a2.42 2.42 0 01-2.42-2.42zm20.162 8.87H4.032a2.42 2.42 0 110-4.838h17.742a2.42 2.42 0 110 4.839zm12.096-1.14v-3.698h3.699l-3.699 3.698zm8.871-23.387l-5.075-5.075-1.14 1.14 2.183 2.184v19.827h-5.645a.807.807 0 00-.807.807v5.645H24.98a3.977 3.977 0 00-.806-5.645 3.995 3.995 0 000-6.452 4.02 4.02 0 00-2.398-7.258H11.29v-6.924l2.183-2.183-1.14-1.14-5.075 5.075-5.312-5.312 7.316-7.316 7.742-1.407c.528 3.497 3.912 6.203 7.994 6.203s7.466-2.706 7.993-6.203l7.742 1.407 7.32 7.316-5.312 5.312z"/><path d="M22.581 32.258H3.227v1.613H22.58v-1.613zM21.775 38.709H3.227v1.613h18.548v-1.613zM21.775 45.16H3.227v1.613h18.548V45.16z"/></g></svg><svg viewBox="0 0 50 50" id="free-time" xmlns="http://www.w3.org/2000/svg"><path d="M4.492 25c0 11.308 9.2 20.508 20.508 20.508S45.508 36.308 45.508 25 36.308 4.492 25 4.492 4.492 13.692 4.492 25zm39.063 0c0 10.231-8.324 18.555-18.555 18.555S6.445 35.23 6.445 25 14.77 6.445 25 6.445 43.555 14.77 43.555 25z"/><path d="M44.315 9.125c-3.616-4.395-8.66-7.45-14.201-8.602a.977.977 0 10-.398 1.912C40.338 4.644 48.046 14.133 48.046 25c0 12.709-10.338 23.047-23.046 23.047S1.953 37.708 1.953 25c0-11.16 7.958-20.698 18.922-22.679A.977.977 0 0020.528.4 25.035 25.035 0 005.886 8.884 25.017 25.017 0 000 24.999c0 6.678 2.6 12.956 7.322 17.678C12.044 47.4 18.322 50 25 50c6.678 0 12.956-2.6 17.678-7.322C47.4 37.955 50 31.677 50 25c0-5.78-2.02-11.418-5.685-15.874z"/><path d="M25.119 1.953H25.196A.977.977 0 0025.204 0H25.127a.977.977 0 00-.008 1.953zM24.035 9.342c0 .257.105.508.286.69a.987.987 0 00.69.286.983.983 0 00.978-.976.98.98 0 00-.977-.977.98.98 0 00-.977.977zM24.988 39.68a.98.98 0 00-.976.976.978.978 0 001.666.69.983.983 0 00.287-.69.985.985 0 00-.287-.69.983.983 0 00-.69-.286zM40.656 25.99a.983.983 0 00.69-.286.979.979 0 00-.69-1.667.983.983 0 00-.69.285.984.984 0 00-.286.69c0 .258.104.51.286.692a.984.984 0 00.69.285zM9.344 24.01a.98.98 0 00-.69 1.667.982.982 0 00.69.286.983.983 0 00.69-.286.985.985 0 00.286-.69.983.983 0 00-.286-.692.98.98 0 00-.69-.285zM17.182 10.457a.985.985 0 00-.69.286.984.984 0 00-.287.69c0 .257.105.51.286.691a.985.985 0 00.69.286.985.985 0 00.691-.286.984.984 0 00.286-.69.984.984 0 00-.286-.69.985.985 0 00-.69-.287zM32.818 37.59a.985.985 0 00-.69.286.984.984 0 00-.286.69c0 .257.104.51.286.69a.985.985 0 00.69.287.985.985 0 00.69-.286.984.984 0 00.287-.69.984.984 0 00-.286-.691.985.985 0 00-.69-.286zM38.566 18.158a.982.982 0 00.977-.976.983.983 0 00-.286-.69.983.983 0 00-.69-.287.982.982 0 00-.691.286.984.984 0 00-.286.69c0 .257.104.51.286.69a.982.982 0 00.69.287zM11.434 31.84a.984.984 0 00-.69.286.984.984 0 00-.287.69c0 .257.105.51.286.69a.984.984 0 00.69.287.984.984 0 00.691-.286.985.985 0 00.286-.69.983.983 0 00-.286-.691.983.983 0 00-.69-.286zM11.447 16.184a.982.982 0 00-.69.286.982.982 0 00-.286.69c0 .257.104.508.286.69a.986.986 0 00.69.287.98.98 0 00.977-.977.978.978 0 00-.977-.976zM38.553 33.816a.984.984 0 00.69-.286.984.984 0 00.286-.69.984.984 0 00-.286-.69.984.984 0 00-.69-.287.98.98 0 00-.977.976.98.98 0 00.977.977zM32.84 12.422a.983.983 0 00.69-.286.98.98 0 00-.69-1.668.983.983 0 00-.69.287.984.984 0 00-.287.69.98.98 0 00.976.977zM17.16 37.576a.978.978 0 00-.976.977c0 .257.104.508.286.69a.982.982 0 00.69.286.982.982 0 00.69-.286.985.985 0 00.287-.69.979.979 0 00-.977-.977zM33.039 15.59L26.77 21.86a3.582 3.582 0 00-1.772-.467c-.64 0-1.241.169-1.763.462l-2.997-2.996a.977.977 0 00-1.38 1.381l2.995 2.996A3.585 3.585 0 0021.394 25a3.611 3.611 0 003.606 3.607 3.611 3.611 0 003.607-3.607c0-.637-.167-1.236-.458-1.756l6.272-6.271a.977.977 0 00-1.381-1.382zm-8.04 11.063a1.656 1.656 0 01-1.653-1.654c0-.912.741-1.654 1.653-1.654.913 0 1.654.742 1.654 1.654 0 .912-.741 1.654-1.654 1.654zM29.255 33.203H20.77a.977.977 0 000 1.953h8.485a.976.976 0 100-1.953z"/></svg><svg viewBox="0 0 20 20" id="heart" xmlns="http://www.w3.org/2000/svg"><path d="M10 18.887c-.285 0-.56-.103-.773-.29-.808-.707-1.587-1.37-2.274-1.956l-.004-.003c-2.015-1.717-3.755-3.2-4.965-4.66C.63 10.343 0 8.795 0 7.103c0-1.643.564-3.16 1.587-4.269a5.378 5.378 0 014-1.741A5.03 5.03 0 018.73 2.179c.47.363.895.807 1.27 1.326a6.43 6.43 0 011.27-1.326 5.03 5.03 0 013.143-1.085c1.544 0 2.965.618 4 1.741C19.438 3.945 20 5.461 20 7.105c0 1.69-.63 3.24-1.983 4.872-1.211 1.46-2.951 2.944-4.966 4.66-.688.587-1.468 1.252-2.278 1.96-.214.187-.488.29-.773.29zM5.587 2.265a4.22 4.22 0 00-3.14 1.364c-.822.893-1.276 2.127-1.276 3.475 0 1.423.53 2.695 1.715 4.126 1.145 1.382 2.85 2.835 4.823 4.516l.004.003c.69.588 1.471 1.255 2.285 1.966.82-.713 1.602-1.38 2.293-1.97 1.974-1.68 3.678-3.133 4.823-4.515 1.186-1.43 1.714-2.703 1.714-4.126 0-1.348-.453-2.582-1.276-3.475a4.22 4.22 0 00-3.139-1.364c-.889 0-1.705.283-2.426.84-.642.497-1.09 1.125-1.352 1.564A.734.734 0 0110 5.03a.734.734 0 01-.635-.36c-.262-.44-.71-1.068-1.352-1.565a3.885 3.885 0 00-2.426-.84z"/></svg><svg viewBox="0 0 30 30" id="instagram" xmlns="http://www.w3.org/2000/svg"><path d="M17.871 15a2.871 2.871 0 11-5.742 0 2.871 2.871 0 015.742 0z"/><path d="M21.715 9.92a2.669 2.669 0 00-.644-.99 2.668 2.668 0 00-.99-.645c-.304-.118-.76-.258-1.6-.296-.908-.042-1.18-.05-3.48-.05s-2.572.008-3.48.05c-.84.038-1.297.178-1.6.296a2.665 2.665 0 00-.99.645 2.67 2.67 0 00-.645.99c-.118.303-.258.76-.296 1.6-.042.908-.05 1.18-.05 3.48s.008 2.572.05 3.48c.038.84.178 1.296.296 1.6.138.374.358.712.645.99.277.286.616.506.99.644.303.119.76.259 1.6.297.907.041 1.18.05 3.48.05s2.572-.009 3.48-.05c.84-.038 1.296-.178 1.6-.297a2.852 2.852 0 001.634-1.634c.118-.304.259-.76.297-1.6.041-.908.05-1.18.05-3.48s-.009-2.572-.05-3.48c-.038-.84-.178-1.297-.297-1.6zm-6.714 9.503a4.423 4.423 0 110-8.846 4.423 4.423 0 010 8.846zm4.598-7.987a1.034 1.034 0 110-2.068 1.034 1.034 0 010 2.068z"/><path d="M15 0C6.717 0 0 6.717 0 15c0 8.283 6.717 15 15 15 8.283 0 15-6.717 15-15 0-8.283-6.717-15-15-15zm8.561 18.551c-.041.917-.187 1.543-.4 2.09a4.404 4.404 0 01-2.52 2.52c-.547.213-1.173.358-2.09.4-.918.042-1.212.052-3.55.052-2.34 0-2.633-.01-3.552-.052-.917-.042-1.543-.187-2.09-.4a4.22 4.22 0 01-1.526-.994 4.22 4.22 0 01-.994-1.525c-.213-.548-.358-1.174-.4-2.09-.042-.92-.052-1.213-.052-3.552 0-2.34.01-2.633.052-3.551.041-.917.187-1.543.4-2.09a4.22 4.22 0 01.994-1.526c.43-.439.95-.778 1.525-.994.548-.213 1.174-.358 2.09-.4.92-.042 1.213-.052 3.552-.052 2.34 0 2.633.01 3.551.052.917.042 1.543.187 2.09.4a4.222 4.222 0 011.527.994c.438.43.777.95.993 1.525.213.548.359 1.174.4 2.09.042.92.052 1.213.052 3.552 0 2.34-.01 2.633-.052 3.551z"/></svg><svg viewBox="0 0 198 26" id="logotype" xmlns="http://www.w3.org/2000/svg"><path d="M22.356 25.36c-1.128 0-2.304-.3-3.528-.9-1.224-.623-2.628-1.763-4.212-3.42l-7.56-7.92V25h-3.24V5.56c0-1.223-.168-2.123-.504-2.7-.336-.6-1.008-.9-2.016-.9h-.72v-.72h3.24c.888 0 1.548.12 1.98.36.456.217.78.625.972 1.225.192.6.288 1.512.288 2.736v7.02l7.56-7.56.72-.756c.672-.696 1.236-1.236 1.692-1.62a5.786 5.786 0 011.62-1.008c.624-.264 1.32-.396 2.088-.396h1.8v.9c-1.008 0-1.884.18-2.628.54-.744.336-1.608.996-2.592 1.98l-7.02 7.02 8.28 8.64c1.056 1.08 2.124 1.992 3.204 2.736 1.08.72 2.052 1.14 2.916 1.26V25c-.72.24-1.5.36-2.34.36zM46.755 25.18c-1.152 0-2.291-.311-3.42-.935-1.127-.648-2.028-1.896-2.7-3.744l-.9-2.34h-10.08L26.776 25h-1.62l10.08-23.76h1.08l7.92 19.26c.6 1.392 1.165 2.352 1.693 2.88.528.504 1.284.804 2.268.9V25c-.432.12-.913.18-1.44.18zm-7.74-8.46l-4.32-10.44-4.5 10.44h8.82zM47.635 5.453c-.6-1.392-1.164-2.34-1.692-2.844-.528-.528-1.284-.84-2.268-.936v-.72c.12 0 .3-.012.54-.036a6.2 6.2 0 01.684-.036c1.2 0 2.352.312 3.456.936 1.104.6 2.04 1.812 2.808 3.636l6.156 14.508 7.92-18.72h1.728L56.635 25.36h-.648L47.635 5.453zM87.115 25.18c-1.152 0-2.292-.311-3.42-.935-1.128-.648-2.028-1.896-2.7-3.744l-.9-2.34h-10.08L67.135 25h-1.62l10.08-23.76h1.08l7.92 19.26c.6 1.392 1.164 2.352 1.692 2.88.528.504 1.284.804 2.268.9V25c-.432.12-.912.18-1.44.18zm-7.74-8.46l-4.32-10.44-4.5 10.44h8.82zM91.39 5.56c0-1.223-.168-2.123-.504-2.7-.336-.6-1.008-.9-2.016-.9h-.72v-.72h3.24c.888 0 1.548.12 1.98.36.456.217.78.625.972 1.225.192.6.288 1.512.288 2.736v18h12.78V25H91.39V5.56zM110.797 5.56c0-1.223-.168-2.123-.504-2.7-.336-.6-1.008-.9-2.016-.9h-.72v-.72h15.336c2.04 0 3.06.96 3.06 2.88v2.7h-.72c0-2.76-1.5-4.14-4.5-4.14h-6.696v9.36h9.72v1.44h-9.72v10.08h6.3c1.656 0 2.952-.3 3.888-.9.936-.6 1.68-1.62 2.232-3.06l.72.18-1.26 3.42c-.432 1.2-1.332 1.8-2.7 1.8h-12.42V5.56zM147.835 25.36c-1.248 0-2.352-.371-3.312-1.115-.936-.768-1.98-2.136-3.132-4.104l-3.6-6.12h-2.52V25h-3.24V5.56c0-1.224-.168-2.124-.504-2.7-.336-.6-1.008-.9-2.016-.9h-.72v-.72h9.36c2.256 0 4.32.456 6.192 1.368 1.872.888 2.808 2.58 2.808 5.076 0 1.872-.552 3.276-1.656 4.212-1.08.912-2.448 1.56-4.104 1.944l3.78 6.3c.888 1.488 1.68 2.532 2.376 3.132.72.576 1.548.912 2.484 1.008V25c-.216.096-.528.18-.936.252a7.238 7.238 0 01-1.26.108zm-9.972-12.6c.792 0 1.632-.18 2.52-.54a5.332 5.332 0 002.232-1.691c.624-.768.936-1.728.936-2.88s-.312-2.112-.936-2.88a5.595 5.595 0 00-2.268-1.692c-.864-.384-1.692-.576-2.484-.576-.768 0-1.632.12-2.592.36v9.9h2.592zM171.981 25.36c-1.128 0-2.304-.3-3.528-.9-1.224-.623-2.628-1.763-4.212-3.42l-7.56-7.92V25h-3.24V5.56c0-1.223-.168-2.123-.504-2.7-.336-.6-1.008-.9-2.016-.9h-.72v-.72h3.24c.888 0 1.548.12 1.98.36.456.217.78.625.972 1.225.192.6.288 1.512.288 2.736v7.02l7.56-7.56.72-.756c.672-.696 1.236-1.236 1.692-1.62a5.786 5.786 0 011.62-1.008c.624-.264 1.32-.396 2.088-.396h1.8v.9c-1.008 0-1.884.18-2.628.54-.744.336-1.608.996-2.592 1.98l-7.02 7.02 8.28 8.64c1.056 1.08 2.124 1.992 3.204 2.736 1.08.72 2.052 1.14 2.916 1.26V25c-.72.24-1.5.36-2.34.36zM196.38 25.18c-1.152 0-2.292-.311-3.42-.935-1.128-.648-2.028-1.896-2.7-3.744l-.9-2.34h-10.08L176.4 25h-1.62l10.08-23.76h1.08l7.92 19.26c.6 1.392 1.164 2.352 1.692 2.88.528.504 1.284.804 2.268.9V25c-.432.12-.912.18-1.44.18zm-7.74-8.46l-4.32-10.44-4.5 10.44h8.82z"/></svg><svg viewBox="0 0 20 10" id="long-arrow-right" xmlns="http://www.w3.org/2000/svg"><path d="M19.77 4.447L15.688.383a.781.781 0 00-1.102 1.107l2.74 2.728H.781a.781.781 0 100 1.562h16.545l-2.74 2.728a.781.781 0 001.102 1.107l4.082-4.062v-.001a.782.782 0 000-1.106z"/></svg><svg viewBox="0 0 18 18" id="loupe" xmlns="http://www.w3.org/2000/svg"><g clip-path="url(#clip0)"><path d="M7.927 0C3.557 0 0 3.556 0 7.927c0 4.37 3.556 7.927 7.927 7.927 4.37 0 7.927-3.556 7.927-7.927C15.854 3.557 12.298 0 7.927 0zm0 14.39a6.47 6.47 0 01-6.464-6.463 6.47 6.47 0 016.464-6.464 6.47 6.47 0 016.463 6.464 6.47 6.47 0 01-6.463 6.463z"/><path d="M17.786 16.751l-4.195-4.195a.731.731 0 10-1.035 1.035l4.195 4.195a.73.73 0 001.035 0 .732.732 0 000-1.035z"/></g></svg><svg viewBox="0 0 12 12" id="minus" xmlns="http://www.w3.org/2000/svg"><path d="M6.023 0C2.728 0 0 2.681 0 5.977 0 9.272 2.728 12 6.023 12 9.32 12 12 9.272 12 5.977A5.983 5.983 0 006.023 0zm3.165 6.68H2.811a.704.704 0 010-1.407h6.376a.704.704 0 010 1.407z"/></svg><svg viewBox="0 0 20 20" id="night" xmlns="http://www.w3.org/2000/svg"><g clip-path="url(#clip0)"><path d="M15.82 5.352h.39v.39a.586.586 0 001.173 0v-.39h.39a.586.586 0 100-1.172h-.39v-.39a.586.586 0 10-1.172 0v.39h-.39a.586.586 0 000 1.172zM2.148 2.93h.391v.39a.586.586 0 001.172 0v-.39h.39a.586.586 0 000-1.172h-.39v-.39a.586.586 0 00-1.172 0v.39h-.39a.586.586 0 000 1.172zM18.633 16.68h-.39v-.39a.586.586 0 00-1.173 0v.39h-.39a.586.586 0 100 1.172h.39v.39a.586.586 0 001.172 0v-.39h.39a.586.586 0 000-1.172z"/><path d="M19.872 9.881a.586.586 0 00-.61-.2 6.19 6.19 0 01-1.606.22 6.181 6.181 0 01-6.175-6.175 6.1 6.1 0 01.71-2.868.586.586 0 00-.671-.839A7.353 7.353 0 006.5 9.548a4.11 4.11 0 00-3.204 3.656A3.402 3.402 0 000 16.6a3.402 3.402 0 003.398 3.398h7.97a3.872 3.872 0 003.866-3.867c0-.653-.162-1.268-.449-1.807a7.312 7.312 0 002.625-1.046 7.39 7.39 0 002.523-2.76.586.586 0 00-.061-.638zm-8.505 8.946H3.398a2.23 2.23 0 01-2.226-2.226 2.23 2.23 0 012.226-2.227c.12 0 .244.012.383.036a.585.585 0 00.684-.623 3.041 3.041 0 01-.012-.233 2.93 2.93 0 015.806-.547c.06.312.357.52.67.469.162-.027.305-.04.438-.04a2.698 2.698 0 012.695 2.696 2.698 2.698 0 01-2.695 2.695zm2.584-5.57a3.852 3.852 0 00-2.675-.991 4.104 4.104 0 00-3.553-2.8 6.18 6.18 0 012.899-7.852 7.339 7.339 0 00-.312 2.112c0 4.05 3.295 7.346 7.346 7.346.171 0 .344-.006.518-.02a6.194 6.194 0 01-4.223 2.205z"/></g></svg><svg viewBox="0 0 15 15" id="profile-user" xmlns="http://www.w3.org/2000/svg"><g clip-path="url(#clip0)"><path d="M7.5.002a7.5 7.5 0 100 15 7.5 7.5 0 000-15zm0 2.242a2.48 2.48 0 110 4.962 2.48 2.48 0 010-4.962zM7.498 13.04a5.504 5.504 0 01-3.584-1.321 1.057 1.057 0 01-.37-.804 2.502 2.502 0 012.513-2.5h2.887c1.39 0 2.51 1.111 2.51 2.5 0 .31-.136.603-.371.803a5.502 5.502 0 01-3.585 1.322z"/></g></svg><svg viewBox="0 0 15 15" id="question" xmlns="http://www.w3.org/2000/svg"><path d="M7.5 0C3.364 0 0 3.364 0 7.5S3.364 15 7.5 15 15 11.636 15 7.5 11.636 0 7.5 0zm0 11.875a.625.625 0 110-1.25.625.625 0 010 1.25zm.99-3.974a.628.628 0 00-.365.568v.281a.625.625 0 11-1.25 0v-.28c0-.73.429-1.399 1.09-1.704.638-.293 1.097-1.072 1.097-1.454 0-.86-.7-1.562-1.562-1.562-.862 0-1.562.701-1.562 1.562a.625.625 0 11-1.25 0A2.816 2.816 0 017.5 2.5a2.816 2.816 0 012.813 2.812c0 .845-.733 2.086-1.824 2.59z"/></svg><svg viewBox="0 0 10 5" id="select-count-arrow" xmlns="http://www.w3.org/2000/svg"><path d="M5 5a.751.751 0 01-.495-.18L.205 1.05a.562.562 0 010-.87.772.772 0 01.99 0L5 3.518 8.805.18a.771.771 0 01.99 0 .562.562 0 010 .869l-4.3 3.771A.751.751 0 015 5z"/></svg><svg viewBox="0 0 50 50" id="shopping-bag" xmlns="http://www.w3.org/2000/svg"><path d="M33.594 9.375h-3.125V7.031a5.469 5.469 0 00-10.938 0v2.344h-3.125a.781.781 0 00-.781.781v17.188a2.351 2.351 0 002.344 2.343h10.156v-1.562H17.969a.781.781 0 01-.782-.781v-.782h10.938V25H17.187V10.937h2.344v2.344h1.563v-2.344h7.812v2.344h1.563v-2.344h2.343v2.344h1.563v-3.125a.781.781 0 00-.781-.781zm-4.688 0h-7.812V7.031a3.906 3.906 0 117.812 0v2.344z"/><path d="M44.531 14.844H30.47a.781.781 0 00-.782.781v11.719a2.351 2.351 0 002.344 2.343H42.97a2.351 2.351 0 002.343-2.343V15.625a.781.781 0 00-.78-.781zm-.781 12.5a.781.781 0 01-.781.781H32.03a.781.781 0 01-.781-.781v-.782h12.5v.782zm0-2.344h-12.5v-8.594h12.5V25z"/><path d="M37.5 23.438a3.91 3.91 0 003.906-3.907V17.97h-1.562v1.562a2.344 2.344 0 01-4.688 0V17.97h-1.562v1.562a3.91 3.91 0 003.906 3.907zM48.696 34.805a3.21 3.21 0 00-4.044-1.611l-6.976 2.539a3.125 3.125 0 00-2.48-2.312l-9.424-1.661a11.732 11.732 0 00-6.043.528l-1.214.447c-1.141.417-2.219.99-3.203 1.702l-.173-.474a.783.783 0 00-1-.47l-8.81 3.204a.781.781 0 00-.47 1l-3.671 1.337.534 1.468 3.672-1.336 3.186 8.756 1.468-.534-3.45-9.49 7.344-2.671 4.009 11.015-1.875.684.534 1.467 2.608-.953a.782.782 0 00.469-1.002l-.268-.734 1.797-.655a8.548 8.548 0 013.534-.498l3.706.257a10.034 10.034 0 004.176-.588l14.281-5.198a3.126 3.126 0 001.782-4.219l.001.002zm-1.436 1.94a1.55 1.55 0 01-.88.808l-14.282 5.199a8.51 8.51 0 01-3.533.497l-3.706-.257c-1.418-.099-2.84.102-4.175.589l-1.802.655-3.012-8.275a11.66 11.66 0 013.18-1.762l1.212-.442a10.168 10.168 0 015.239-.458l9.42 1.661a1.562 1.562 0 11-.542 3.078l-8.463-1.492-.272 1.539 8.463 1.492a3.11 3.11 0 003.52-2.164l7.557-2.751a1.665 1.665 0 012.083.781 1.571 1.571 0 01-.007 1.302z"/></svg><svg viewBox="0 0 20 20" id="shopping-cart" xmlns="http://www.w3.org/2000/svg"><g clip-path="url(#clip0)"><path d="M19.703 7.23a1.382 1.382 0 00-1.087-.522h-3.852l-2.088-4.782a.586.586 0 10-1.074.469l1.883 4.313h-6.97l1.883-4.313a.586.586 0 00-1.074-.47L5.236 6.709H1.384c-.427 0-.823.19-1.087.522a1.35 1.35 0 00-.263 1.147l2.057 8.985a1.373 1.373 0 001.35 1.065h13.118c.651 0 1.206-.438 1.35-1.065l2.056-8.985a1.35 1.35 0 00-.262-1.147zM16.56 17.255H3.441a.21.21 0 01-.207-.155L1.177 8.116a.179.179 0 01.036-.156.213.213 0 01.171-.08h3.34l-.153.352a.586.586 0 001.073.469l.359-.82h7.994l.359.82a.586.586 0 101.074-.47l-.154-.35h3.34c.093 0 .147.05.17.08a.18.18 0 01.037.155L16.766 17.1a.21.21 0 01-.207.155z"/><path d="M6.484 10.418a.586.586 0 00-.586.586V15.3a.586.586 0 001.172 0v-4.297a.586.586 0 00-.586-.586zM10 10.418a.586.586 0 00-.586.586V15.3a.586.586 0 001.172 0v-4.297a.586.586 0 00-.586-.586zM13.516 10.418a.586.586 0 00-.586.586V15.3a.586.586 0 101.172 0v-4.297a.586.586 0 00-.586-.586z"/></g></svg><svg viewBox="0 0 20 20" id="star" xmlns="http://www.w3.org/2000/svg"><path d="M19.948 7.671a1.062 1.062 0 00-.915-.73l-5.773-.524-2.282-5.342a1.063 1.063 0 00-1.955 0L6.74 6.417l-5.774.524a1.065 1.065 0 00-.605 1.86l4.365 3.827-1.287 5.668a1.063 1.063 0 001.582 1.149L10 16.468l4.977 2.977a1.062 1.062 0 001.583-1.15l-1.287-5.667 4.365-3.827c.32-.28.441-.724.31-1.13z"/></svg><svg viewBox="0 0 20 20" id="sunny-day" xmlns="http://www.w3.org/2000/svg"><path d="M9.999 16.694a.683.683 0 00-.683.683v1.94a.682.682 0 101.365 0v-1.94a.682.682 0 00-.682-.683zM9.999 3.306a.682.682 0 00.682-.683V.683a.682.682 0 10-1.365 0v1.94c0 .377.306.683.683.683zM4.301 14.733L2.93 16.105a.682.682 0 10.964.965l1.373-1.372a.682.682 0 10-.965-.965zM15.216 5.465a.68.68 0 00.482-.2l1.373-1.371a.683.683 0 00-.965-.966L14.733 4.3a.682.682 0 00.483 1.165zM3.305 10a.682.682 0 00-.682-.683H.683a.682.682 0 000 1.365h1.94A.682.682 0 003.305 10zM19.317 9.317h-1.941a.682.682 0 100 1.365h1.941a.682.682 0 100-1.365zM4.3 5.266a.68.68 0 00.965 0 .683.683 0 000-.966L3.894 2.928a.682.682 0 10-.966.966L4.3 5.266zM15.698 14.733a.682.682 0 00-.965.965l1.372 1.372a.68.68 0 00.965 0 .682.682 0 000-.965l-1.372-1.372zM10 4.688A5.318 5.318 0 004.686 10 5.318 5.318 0 0010 15.312 5.318 5.318 0 0015.312 10a5.318 5.318 0 00-5.313-5.313zm0 9.259A3.951 3.951 0 016.051 10 3.952 3.952 0 0110 6.052 3.952 3.952 0 0113.947 10a3.952 3.952 0 01-3.948 3.947z"/></svg><svg viewBox="0 0 15 15" id="tel" xmlns="http://www.w3.org/2000/svg"><g clip-path="url(#clip0)"><path d="M14.592 11.008l-2.094-2.093c-.747-.747-2.018-.448-2.317.524-.225.672-.972 1.046-1.645.897-1.495-.374-3.514-2.318-3.888-3.888-.224-.673.225-1.42.898-1.645.971-.299 1.27-1.57.523-2.317L3.976.392C3.378-.13 2.48-.13 1.957.392l-1.42 1.42C-.883 3.309.687 7.27 4.2 10.785c3.514 3.514 7.476 5.159 8.971 3.663l1.42-1.42c.524-.598.524-1.495 0-2.018z"/></g></svg><svg viewBox="0 0 30 30" id="telegram" xmlns="http://www.w3.org/2000/svg"><path d="M15 30c8.286 0 15-6.714 15-15S23.286 0 15 0 0 6.714 0 15s6.714 15 15 15zM6.864 14.675l14.462-5.576c.671-.243 1.258.163 1.04 1.178h.002l-2.463 11.6c-.183.823-.671 1.023-1.355.636l-3.75-2.764-1.809 1.742c-.2.2-.368.369-.756.369l.266-3.816 6.95-6.279c.303-.266-.067-.416-.466-.151l-8.589 5.407-3.702-1.155c-.804-.255-.822-.803.17-1.191z"/></svg><svg viewBox="0 0 30 30" id="youtube" xmlns="http://www.w3.org/2000/svg"><path d="M7.88 16.107h1.19v6.437h1.124v-6.437h1.212v-1.054H7.88v1.054zM17.393 16.894c-.372 0-.719.203-1.045.605v-2.446h-1.011v7.491h1.011v-.54c.339.417.686.617 1.046.617.402 0 .673-.212.808-.627.067-.237.102-.609.102-1.125v-2.223c0-.528-.035-.897-.102-1.122-.135-.418-.407-.63-.809-.63zm-.1 4.054c0 .505-.149.753-.44.753-.167 0-.336-.08-.505-.249v-3.401c.169-.168.338-.247.504-.247.292 0 .44.259.44.762v2.382zM13.45 21.229c-.225.317-.437.473-.64.473-.135 0-.212-.08-.237-.237-.009-.032-.009-.156-.009-.393v-4.11h-1.011v4.414c0 .394.034.66.089.83.102.283.326.416.652.416.372 0 .754-.225 1.156-.686v.609h1.012v-5.582H13.45v4.266zM14.318 11.805c.33 0 .487-.261.487-.783V8.649c0-.522-.158-.782-.487-.782-.33 0-.488.26-.488.782v2.373c0 .522.158.783.488.783z"/><path d="M15 0C6.716 0 0 6.716 0 15c0 8.284 6.716 15 15 15 8.284 0 15-6.716 15-15 0-8.284-6.716-15-15-15zm1.668 7.016h1.02v4.153c0 .24 0 .364.012.397.022.159.103.24.24.24.204 0 .418-.159.645-.479V7.016h1.022v5.64h-1.022v-.615c-.407.467-.795.693-1.168.693-.329 0-.556-.133-.658-.419-.057-.17-.09-.44-.09-.839v-4.46zm-3.86 1.84c0-.604.103-1.045.32-1.33.283-.386.68-.578 1.19-.578.512 0 .91.192 1.192.578.215.285.317.726.317 1.33v1.974c0 .6-.102 1.045-.317 1.327-.282.385-.68.577-1.192.577-.51 0-.907-.192-1.19-.577-.217-.282-.32-.727-.32-1.327V8.855zm-2.733-3.769l.805 2.973.773-2.973h1.146l-1.364 4.504v3.066h-1.133V9.59c-.103-.543-.33-1.339-.693-2.395-.239-.702-.488-1.407-.727-2.109h1.193zm13 17.95c-.205.89-.933 1.546-1.809 1.644-2.075.232-4.175.233-6.267.232-2.09.001-4.192 0-6.267-.232-.876-.098-1.604-.754-1.808-1.644-.292-1.268-.292-2.651-.292-3.956 0-1.305.004-2.689.295-3.956.205-.89.932-1.547 1.808-1.645 2.076-.232 4.176-.233 6.268-.232 2.09 0 4.191 0 6.267.232.876.098 1.604.755 1.809 1.645.29 1.267.29 2.65.29 3.956 0 1.305-.002 2.688-.294 3.956z"/><path d="M20.615 16.895c-.518 0-.92.19-1.212.572-.214.282-.312.718-.312 1.315v1.955c0 .593.11 1.033.325 1.312.292.381.695.572 1.224.572.528 0 .943-.2 1.223-.605.122-.18.202-.382.236-.606.01-.102.021-.326.021-.652v-.147H21.09c0 .405-.013.63-.022.685-.058.27-.204.405-.452.405-.348 0-.518-.258-.518-.774v-.99h2.023v-1.156c0-.596-.1-1.033-.313-1.315-.282-.381-.685-.572-1.192-.572zm.494 2.2h-1.011v-.516c0-.516.17-.774.507-.774.335 0 .504.258.504.774v.517z"/></svg></svg>