<svg width="15" height="10" fill="none" xmlns="http://www.w3.org/2000/svg"><g opacity=".5" fill="#292929"><path d="M14.905 4.695C14.77 4.503 11.578 0 7.5 0S.229 4.503.095 4.695a.537.537 0 000 .61C.23 5.497 3.422 10 7.5 10s7.27-4.503 7.405-4.695a.536.536 0 000-.61zM7.5 8.965C4.496 8.966 1.895 5.978 1.124 5c.77-.978 3.366-3.966 6.376-3.966 3.004 0 5.605 2.989 6.376 3.966-.77.978-3.366 3.966-6.376 3.966z"/><path d="M7.5 1.898c-1.636 0-2.967 1.393-2.967 3.104S5.864 8.105 7.5 8.105c1.636 0 2.967-1.392 2.967-3.103 0-1.711-1.33-3.104-2.967-3.104zm0 5.173c-1.09 0-1.978-.928-1.978-2.07 0-1.14.888-2.068 1.978-2.068 1.09 0 1.978.928 1.978 2.069 0 1.14-.887 2.069-1.978 2.069z"/></g></svg>