<svg width="50" height="50" fill="none" xmlns="http://www.w3.org/2000/svg"><g clip-path="url(#clip0)" fill="#707070"><path d="M49.764 17.978l-8.065-8.064a.807.807 0 00-.425-.223l-8.871-1.613a.806.806 0 00-.951.793 4.78 4.78 0 01-.069.764l-5.576-1.393v-.258a4.032 4.032 0 10-4.839-3.952h1.613a2.42 2.42 0 112.42 2.42.806.806 0 00-.807.806v.983l-5.577 1.394a4.79 4.79 0 01-.068-.764.806.806 0 00-.951-.793l-8.87 1.613a.807.807 0 00-.427.223L.237 17.978a.806.806 0 000 1.14l6.451 6.452a.806.806 0 001.14 0l1.85-1.85v5.312H4.033a4.02 4.02 0 00-2.395 7.258 3.995 3.995 0 000 6.452A4.02 4.02 0 004.033 50h29.032a.806.806 0 00.57-.237l6.452-6.451a.799.799 0 00.228-.57h.008V23.72l1.849 1.849a.806.806 0 001.14 0l6.452-6.452a.806.806 0 000-1.14zM25 9.702l5.865 1.466A6.58 6.58 0 0125 14.415a6.58 6.58 0 01-5.864-3.247L25 9.702zM1.613 33.064a2.42 2.42 0 012.42-2.42h17.741a2.42 2.42 0 110 4.84H4.034a2.42 2.42 0 01-2.42-2.42zm0 6.452a2.42 2.42 0 012.42-2.42h17.741a2.42 2.42 0 110 4.84H4.034a2.42 2.42 0 01-2.42-2.42zm20.162 8.87H4.032a2.42 2.42 0 110-4.838h17.742a2.42 2.42 0 110 4.839zm12.096-1.14v-3.698h3.699l-3.699 3.698zm8.871-23.387l-5.075-5.075-1.14 1.14 2.183 2.184v19.827h-5.645a.807.807 0 00-.807.807v5.645H24.98a3.977 3.977 0 00-.806-5.645 3.995 3.995 0 000-6.452 4.02 4.02 0 00-2.398-7.258H11.29v-6.924l2.183-2.183-1.14-1.14-5.075 5.075-5.312-5.312 7.316-7.316 7.742-1.407c.528 3.497 3.912 6.203 7.994 6.203s7.466-2.706 7.993-6.203l7.742 1.407 7.32 7.316-5.312 5.312z"/><path d="M22.581 32.258H3.227v1.613H22.58v-1.613zm-.806 6.451H3.227v1.613h18.548v-1.613zm0 6.451H3.227v1.613h18.548V45.16z"/></g><defs><clipPath id="clip0"><path fill="#fff" d="M0 0h50v50H0z"/></clipPath></defs></svg>