<svg width="50" height="50" fill="none" xmlns="http://www.w3.org/2000/svg"><path d="M4.492 25c0 11.308 9.2 20.508 20.508 20.508S45.508 36.308 45.508 25 36.308 4.492 25 4.492 4.492 13.692 4.492 25zm39.063 0c0 10.231-8.324 18.555-18.555 18.555S6.445 35.23 6.445 25 14.77 6.445 25 6.445 43.555 14.77 43.555 25z" fill="#707070"/><path d="M44.315 9.125c-3.616-4.395-8.66-7.45-14.201-8.602a.977.977 0 10-.398 1.912C40.338 4.644 48.046 14.133 48.046 25c0 12.709-10.338 23.047-23.046 23.047S1.953 37.708 1.953 25c0-11.16 7.958-20.698 18.922-22.679A.977.977 0 0020.528.4 25.035 25.035 0 005.886 8.884 25.017 25.017 0 000 24.999c0 6.678 2.6 12.956 7.322 17.678C12.044 47.4 18.322 50 25 50c6.678 0 12.956-2.6 17.678-7.322C47.4 37.955 50 31.677 50 25a25.05 25.05 0 00-5.685-15.874z" fill="#707070"/><path d="M25.119 1.953h.077A.977.977 0 0025.204 0h-.077a.977.977 0 00-.008 1.953zm-1.084 7.389c0 .257.105.508.286.69a.987.987 0 00.69.286.983.983 0 00.978-.976.98.98 0 00-.977-.977.98.98 0 00-.977.977zm.953 30.338a.98.98 0 00-.976.976.978.978 0 001.666.69.983.983 0 00.287-.69.985.985 0 00-.287-.69.983.983 0 00-.69-.286zm15.668-13.69a.983.983 0 00.69-.286.979.979 0 00-.69-1.667.983.983 0 00-.69.285.984.984 0 00-.286.69c0 .258.104.51.286.692a.984.984 0 00.69.285zM9.344 24.01a.98.98 0 00-.69 1.667.982.982 0 00.69.286.983.983 0 00.69-.286.985.985 0 00.286-.69.983.983 0 00-.286-.692.98.98 0 00-.69-.285zm7.838-13.553a.985.985 0 00-.69.286.984.984 0 00-.287.69c0 .257.105.51.286.691a.985.985 0 00.69.286.985.985 0 00.691-.286.984.984 0 00.286-.69.984.984 0 00-.286-.69.985.985 0 00-.69-.287zM32.818 37.59a.985.985 0 00-.69.286.984.984 0 00-.286.69c0 .257.104.51.286.69a.985.985 0 00.69.287.985.985 0 00.69-.286.984.984 0 00.287-.69.984.984 0 00-.286-.691.985.985 0 00-.69-.286zm5.748-19.432a.982.982 0 00.977-.976.983.983 0 00-.286-.69.983.983 0 00-.69-.287.982.982 0 00-.691.286.984.984 0 00-.286.69c0 .257.104.51.286.69a.982.982 0 00.69.287zM11.434 31.84a.984.984 0 00-.69.286.984.984 0 00-.287.69c0 .257.105.51.286.69a.984.984 0 00.69.287.984.984 0 00.691-.286.985.985 0 00.286-.69.983.983 0 00-.286-.691.983.983 0 00-.69-.286zm.013-15.656a.982.982 0 00-.69.286.982.982 0 00-.286.69c0 .257.104.508.286.69a.986.986 0 00.69.287.98.98 0 00.977-.977.978.978 0 00-.977-.976zm27.106 17.632a.984.984 0 00.69-.286.984.984 0 00.286-.69.984.984 0 00-.286-.69.984.984 0 00-.69-.287.98.98 0 00-.977.976.98.98 0 00.977.977zM32.84 12.422a.983.983 0 00.69-.286.98.98 0 00-.69-1.668.983.983 0 00-.69.287.984.984 0 00-.287.69.98.98 0 00.976.977zM17.16 37.576a.978.978 0 00-.976.977c0 .257.104.508.286.69a.982.982 0 00.69.286.982.982 0 00.69-.286.985.985 0 00.287-.69.979.979 0 00-.977-.977zM33.039 15.59l-6.269 6.27a3.582 3.582 0 00-1.772-.467c-.64 0-1.241.169-1.763.462l-2.997-2.996a.977.977 0 00-1.38 1.381l2.995 2.996A3.585 3.585 0 0021.394 25 3.611 3.611 0 0025 28.607 3.611 3.611 0 0028.607 25c0-.637-.167-1.236-.458-1.756l6.272-6.271a.977.977 0 00-1.381-1.382zm-8.04 11.063a1.656 1.656 0 01-1.653-1.654c0-.912.741-1.654 1.653-1.654.913 0 1.654.742 1.654 1.654 0 .912-.741 1.654-1.654 1.654zm4.256 6.55H20.77a.977.977 0 000 1.953h8.485a.976.976 0 100-1.953z" fill="#707070"/></svg>