<svg width="20" height="20" fill="none" xmlns="http://www.w3.org/2000/svg"><path d="M9.999 16.694a.683.683 0 00-.683.683v1.94a.682.682 0 101.365 0v-1.94a.682.682 0 00-.682-.683zm0-13.388a.682.682 0 00.682-.683V.683a.682.682 0 10-1.365 0v1.94c0 .377.306.683.683.683zM4.301 14.733L2.93 16.105a.682.682 0 10.964.965l1.373-1.372a.682.682 0 10-.965-.965zm10.915-9.268a.68.68 0 00.482-.2l1.373-1.371a.683.683 0 00-.965-.966L14.733 4.3a.682.682 0 00.483 1.165zM3.305 10a.682.682 0 00-.682-.683H.683a.682.682 0 000 1.365h1.94A.682.682 0 003.305 10zm16.012-.683h-1.941a.682.682 0 100 1.365h1.941a.682.682 0 100-1.365zM4.3 5.266a.68.68 0 00.965 0 .683.683 0 000-.966L3.894 2.928a.682.682 0 10-.966.966L4.3 5.266zm11.398 9.467a.682.682 0 00-.965.965l1.372 1.372a.68.68 0 00.965 0 .682.682 0 000-.965l-1.372-1.372zM10 4.688A5.318 5.318 0 004.686 10 5.318 5.318 0 0010 15.312 5.318 5.318 0 0015.312 10a5.318 5.318 0 00-5.313-5.313zm0 9.259A3.951 3.951 0 016.051 10 3.952 3.952 0 0110 6.052 3.952 3.952 0 0113.947 10a3.952 3.952 0 01-3.948 3.947z" fill="#FFC960"/></svg>