<svg width="30" height="30" fill="none" xmlns="http://www.w3.org/2000/svg"><path d="M7.88 16.107h1.19v6.437h1.124v-6.437h1.212v-1.054H7.88v1.054zm9.513.787c-.372 0-.719.203-1.045.605v-2.446h-1.011v7.491h1.011v-.54c.339.417.686.617 1.046.617.402 0 .673-.212.808-.627.067-.237.102-.609.102-1.125v-2.223c0-.528-.035-.897-.102-1.122-.135-.418-.407-.63-.809-.63zm-.1 4.054c0 .505-.149.753-.44.753-.167 0-.336-.08-.505-.249v-3.401c.169-.168.338-.247.504-.247.292 0 .44.259.44.762v2.382zm-3.843.281c-.225.317-.437.473-.64.473-.135 0-.212-.08-.237-.237-.009-.032-.009-.156-.009-.393v-4.11h-1.011v4.414c0 .394.034.66.089.83.102.283.326.416.652.416.372 0 .754-.225 1.156-.686v.609h1.012v-5.582H13.45v4.266zm.868-9.424c.33 0 .487-.261.487-.783V8.649c0-.522-.158-.782-.487-.782-.33 0-.488.26-.488.782v2.373c0 .522.158.783.488.783z" fill="#fff"/><path d="M15 0C6.716 0 0 6.716 0 15c0 8.284 6.716 15 15 15 8.284 0 15-6.716 15-15 0-8.284-6.716-15-15-15zm1.668 7.016h1.02v4.153c0 .24 0 .364.012.397.022.159.103.24.24.24.204 0 .418-.159.645-.479V7.016h1.022v5.64h-1.022v-.615c-.407.467-.795.693-1.168.693-.329 0-.556-.133-.658-.419-.057-.17-.09-.44-.09-.839v-4.46zm-3.86 1.84c0-.604.103-1.045.32-1.33.283-.386.68-.578 1.19-.578.512 0 .91.192 1.192.578.215.285.317.726.317 1.33v1.974c0 .6-.102 1.045-.317 1.327-.282.385-.68.577-1.192.577-.51 0-.907-.192-1.19-.577-.217-.282-.32-.727-.32-1.327V8.855zm-2.733-3.769l.805 2.973.773-2.973h1.146l-1.364 4.504v3.066h-1.133V9.59c-.103-.543-.33-1.339-.693-2.395-.239-.702-.488-1.407-.727-2.109h1.193zm13 17.95c-.205.89-.933 1.546-1.809 1.644-2.075.232-4.175.233-6.267.232-2.09.001-4.192 0-6.267-.232-.876-.098-1.604-.754-1.808-1.644-.292-1.268-.292-2.651-.292-3.956 0-1.305.004-2.689.295-3.956.205-.89.932-1.547 1.808-1.645 2.076-.232 4.176-.233 6.268-.232 2.09 0 4.191 0 6.267.232.876.098 1.604.755 1.809 1.645.29 1.267.29 2.65.29 3.956 0 1.305-.002 2.688-.294 3.956z" fill="#fff"/><path d="M20.615 16.895c-.518 0-.92.19-1.212.572-.214.282-.312.718-.312 1.315v1.955c0 .593.11 1.033.325 1.312.292.381.695.572 1.224.572.528 0 .943-.2 1.223-.605.122-.18.202-.382.236-.606.01-.102.021-.326.021-.652v-.147h-1.03c0 .405-.013.63-.022.685-.058.27-.204.405-.452.405-.348 0-.518-.258-.518-.774v-.99h2.023v-1.156c0-.596-.1-1.033-.313-1.315-.282-.381-.685-.572-1.192-.572zm.494 2.2h-1.011v-.516c0-.516.17-.774.507-.774.335 0 .504.258.504.774v.517z" fill="#fff"/></svg>