<svg width="19" height="19" viewBox="0 0 19 19" fill="none" xmlns="http://www.w3.org/2000/svg">
    <path d="M9.44184 2.00002L9.86 2.00003L9.83378 1.99851C13.1611 2.1821 15.8179 4.83891 16.0015 8.16624L16 8.5556C16.0026 9.57392 15.7653 10.5759 15.3074 11.4825C14.1956 13.707 11.9266 15.1102 9.44404 15.1111C8.42611 15.1138 7.42414 14.8765 6.51751 14.4185L6.39562 14.3668C6.18812 14.2945 5.96122 14.2922 5.75043 14.3625L2.581 15.419L3.63757 12.2496C3.72188 11.9967 3.70169 11.7205 3.58148 11.4825C3.12355 10.5759 2.88624 9.57392 2.88888 8.5582C2.88985 6.07343 4.29306 3.8044 6.51372 2.69456C7.42413 2.23471 8.42611 1.9974 9.44184 2.00002ZM9.9457 0.00157465L9.44616 2.77381e-05C8.11803 -0.00338155 6.80532 0.307531 5.61753 0.907482C2.72319 2.35402 0.89187 5.3153 0.890617 8.55524L0.897447 8.91708C0.936344 9.88052 1.1403 10.8304 1.49959 11.7246L1.61473 11.9971L0.0530458 16.6838L0.0236458 16.7901C-0.139849 17.5311 0.571733 18.1975 1.31796 17.9487L6.00373 16.3861L6.27717 16.5022C7.28328 16.9064 8.36 17.114 9.44877 17.1112C12.6865 17.1099 15.6478 15.2786 17.0962 12.3805C17.6943 11.1965 18.0052 9.88376 18.0018 8.55304V8.11118C17.7605 3.71089 14.2909 0.241325 9.9457 0.00157465Z" fill="black"/>
</svg>
