<svg width="17" height="17" viewBox="0 0 17 17" fill="none" xmlns="http://www.w3.org/2000/svg">
    <path fill-rule="evenodd" clip-rule="evenodd" d="M2.66667 2C2.29848 2 2 2.29848 2 2.66667V13.5858L3.62623 11.9596C3.81376 11.772 4.06812 11.6667 4.33333 11.6667H14.3333C14.7015 11.6667 15 11.3682 15 11V2.66667C15 2.29848 14.7015 2 14.3333 2H2.66667ZM0 2.66667C0 1.19391 1.19391 0 2.66667 0H14.3333C15.8061 0 17 1.19391 17 2.66667V11C17 12.4728 15.8061 13.6667 14.3333 13.6667H4.74755L1.70711 16.7071C1.42111 16.9931 0.990991 17.0787 0.617317 16.9239C0.243642 16.7691 0 16.4045 0 16V2.66667Z" fill="black"/>
</svg>
