<svg width="18" height="14" viewBox="0 0 18 14" fill="none" xmlns="http://www.w3.org/2000/svg">
    <path fill-rule="evenodd" clip-rule="evenodd" d="M2.64478 7C2.70142 7.09494 2.76748 7.20245 2.84279 7.32003C3.14993 7.79955 3.60423 8.43628 4.19259 9.06908C5.38815 10.355 7.01641 11.5 9 11.5C10.9836 11.5 12.6118 10.355 13.8074 9.06908C14.3958 8.43627 14.8501 7.79955 15.1572 7.32002C15.2325 7.20245 15.2986 7.09494 15.3552 7C15.2986 6.90506 15.2325 6.79755 15.1572 6.67998C14.8501 6.20045 14.3958 5.56373 13.8074 4.93092C12.6118 3.64502 10.9836 2.5 9 2.5C7.01641 2.5 5.38815 3.64502 4.19259 4.93091C3.60423 5.56372 3.14993 6.20045 2.84279 6.67997C2.76748 6.79755 2.70142 6.90506 2.64478 7ZM16.5 7C17.3959 6.55575 17.3957 6.55542 17.3956 6.55507L17.3942 6.55229L17.3914 6.54683L17.3829 6.52999C17.3759 6.51618 17.3661 6.49725 17.3537 6.47354C17.3288 6.42613 17.2931 6.35954 17.2468 6.27649C17.1542 6.11054 17.0187 5.87811 16.8414 5.60127C16.488 5.04955 15.9622 4.31127 15.2721 3.56908C13.9109 2.10498 11.7891 0.5 9 0.5C6.21086 0.5 4.08912 2.10498 2.72786 3.56908C2.03781 4.31128 1.512 5.04955 1.15863 5.60128C0.981317 5.87811 0.84578 6.11055 0.753204 6.2765C0.706879 6.35954 0.6712 6.42614 0.64632 6.47354C0.633878 6.49725 0.624126 6.51618 0.617085 6.52999L0.608554 6.54683L0.605816 6.5523L0.604829 6.55428C0.604656 6.55462 0.604097 6.55575 1.5 7L0.604097 6.55575C0.465301 6.83566 0.465301 7.16434 0.604097 7.44425L1.5 7C0.604097 7.44425 0.603924 7.4439 0.604097 7.44425L0.605816 7.4477L0.608554 7.45317L0.617085 7.47001C0.624126 7.48382 0.633878 7.50275 0.64632 7.52646C0.6712 7.57386 0.706879 7.64046 0.753204 7.7235C0.84578 7.88945 0.981317 8.12189 1.15863 8.39872C1.512 8.95045 2.03781 9.68872 2.72786 10.4309C4.08912 11.895 6.21086 13.5 9 13.5C11.7891 13.5 13.9109 11.895 15.2721 10.4309C15.9622 9.68873 16.488 8.95045 16.8414 8.39873C17.0187 8.12189 17.1542 7.88946 17.2468 7.72351C17.2931 7.64046 17.3288 7.57387 17.3537 7.52646C17.3661 7.50275 17.3759 7.48382 17.3829 7.47001L17.3914 7.45317L17.3942 7.44771L17.3952 7.44573C17.3953 7.44538 17.3959 7.44425 16.5 7ZM16.5 7L17.3959 7.44425C17.5347 7.16435 17.5344 6.83498 17.3956 6.55507L16.5 7Z" fill="black"/>
    <path fill-rule="evenodd" clip-rule="evenodd" d="M5.95441 7C5.95441 5.31647 7.31009 3.9375 8.99986 3.9375C10.6896 3.9375 12.0453 5.31646 12.0453 7C12.0453 8.68354 10.6896 10.0625 8.99986 10.0625C7.31009 10.0625 5.95441 8.68353 5.95441 7ZM8.99986 5.9375C8.43028 5.9375 7.95441 6.40535 7.95441 7C7.95441 7.59465 8.43028 8.0625 8.99986 8.0625C9.56941 8.0625 10.0453 7.59464 10.0453 7C10.0453 6.40536 9.56941 5.9375 8.99986 5.9375Z" fill="black"/>
</svg>
