<svg width="14" height="14" viewBox="0 0 14 14" fill="none" xmlns="http://www.w3.org/2000/svg">
<path fill-rule="evenodd" clip-rule="evenodd" d="M6.99985 1.71026C7.76242 0.94131 8.79015 0.5 9.8731 0.5C10.9871 0.5 12.0426 0.96695 12.8112 1.77713C13.5784 2.58519 14 3.66967 14 4.78929C14 5.90883 13.5784 6.99325 12.8114 7.80128C12.8113 7.80133 12.8114 7.80123 12.8114 7.80128L7.68013 13.2087C7.50372 13.3946 7.25752 13.5 6.99984 13.5C6.74217 13.5 6.49597 13.3946 6.31955 13.2087L1.18833 7.80128C-0.396109 6.13158 -0.396109 3.44699 1.18833 1.77729C2.78251 0.0973161 5.379 0.0749735 6.99985 1.71026ZM9.8731 2.34772C9.29329 2.34772 8.72444 2.58999 8.29557 3.04215L7.68013 3.6907C7.50372 3.87661 7.25752 3.98205 6.99984 3.98205C6.74217 3.98205 6.49597 3.87661 6.31955 3.6907L5.70427 3.04231C4.82586 2.11662 3.42732 2.11662 2.54891 3.04231C1.63925 4.00092 1.63925 5.57766 2.54891 6.53627L6.99984 11.2267L11.4508 6.53627C11.8817 6.08237 12.1333 5.45476 12.1333 4.78929C12.1333 4.12381 11.8819 3.49637 11.4509 3.04247C11.0221 2.5903 10.4529 2.34772 9.8731 2.34772Z" fill="#4A4A4A"/>
</svg>
