<svg width="16" height="16" viewBox="0 0 16 16" fill="none" xmlns="http://www.w3.org/2000/svg">
    <path d="M9.53543 5.89994H8.53543C8.53543 6.45222 8.98315 6.89994 9.53543 6.89994V5.89994ZM7.40157 1V0C7.00855 0 6.65197 0.230221 6.4902 0.588411L7.40157 1ZM4.55643 7.29992L3.64506 6.88833C3.58664 7.01768 3.55643 7.15799 3.55643 7.29992H4.55643ZM4.55643 14.9998H3.55643C3.55643 15.5521 4.00414 15.9998 4.55643 15.9998V14.9998ZM12.5797 14.9998L12.5909 13.9998H12.5797V14.9998ZM14.0023 13.8098L13.0142 13.6559L13.014 13.6575L14.0023 13.8098ZM14.9839 7.50992L15.972 7.66387L15.9722 7.66235L14.9839 7.50992ZM13.5613 5.89994V6.9L13.5725 6.89988L13.5613 5.89994ZM4.55643 15.9998C5.10871 15.9998 5.55643 15.5521 5.55643 14.9998C5.55643 14.4475 5.10871 13.9998 4.55643 13.9998V15.9998ZM4.55643 8.29992C5.10871 8.29992 5.55643 7.8522 5.55643 7.29992C5.55643 6.74763 5.10871 6.29992 4.55643 6.29992V8.29992ZM10.5354 5.89994V3.09997H8.53543V5.89994H10.5354ZM10.5354 3.09997C10.5354 1.37287 9.1172 0 7.40157 0V2C8.04294 2 8.53543 2.50751 8.53543 3.09997H10.5354ZM6.4902 0.588411L3.64506 6.88833L5.4678 7.71151L8.31294 1.41159L6.4902 0.588411ZM3.55643 7.29992V14.9998H5.55643V7.29992H3.55643ZM4.55643 15.9998H12.5797V13.9998H4.55643V15.9998ZM12.5686 15.9998C13.7636 16.0131 14.8067 15.1561 14.9906 13.9621L13.014 13.6575C12.9852 13.8441 12.8146 14.0024 12.5909 13.9999L12.5686 15.9998ZM14.9904 13.9638L15.972 7.66387L13.9958 7.35597L13.0142 13.6559L14.9904 13.9638ZM15.9722 7.66235C16.0804 6.96047 15.8693 6.24986 15.4003 5.71905L13.9015 7.04334C13.9802 7.13243 14.0126 7.24717 13.9956 7.35749L15.9722 7.66235ZM15.4003 5.71905C14.932 5.18909 14.255 4.89214 13.5502 4.9L13.5725 6.89988C13.7023 6.89843 13.822 6.95339 13.9015 7.04334L15.4003 5.71905ZM13.5613 4.89994H9.53543V6.89994H13.5613V4.89994ZM4.55643 13.9998H2.42257V15.9998H4.55643V13.9998ZM2.42257 13.9998C2.17404 13.9998 2 13.8057 2 13.5998H0C0 14.9403 1.09977 15.9998 2.42257 15.9998V13.9998ZM2 13.5998V8.6999H0V13.5998H2ZM2 8.6999C2 8.49403 2.17404 8.29992 2.42257 8.29992V6.29992C1.09977 6.29992 0 7.3594 0 8.6999H2ZM2.42257 8.29992H4.55643V6.29992H2.42257V8.29992Z" fill="black"/>
</svg>
