<svg width="16" height="7" viewBox="0 0 16 7" fill="none" xmlns="http://www.w3.org/2000/svg">
    <path fill-rule="evenodd" clip-rule="evenodd" d="M4.44067 3.5C4.44067 1.54628 6.05365 0 7.99654 0C9.93945 0 11.5524 1.54629 11.5524 3.5C11.5524 5.45371 9.93945 7 7.99654 7C6.05365 7 4.44067 5.45372 4.44067 3.5ZM7.99654 2C7.11632 2 6.44067 2.6923 6.44067 3.5C6.44067 4.3077 7.11632 5 7.99654 5C8.87677 5 9.5524 4.30771 9.5524 3.5C9.5524 2.69229 8.87677 2 7.99654 2Z" fill="black"/>
    <path fill-rule="evenodd" clip-rule="evenodd" d="M0 3.5C0 2.94772 0.447715 2.5 1 2.5H4.80186C5.35414 2.5 5.80186 2.94772 5.80186 3.5C5.80186 4.05228 5.35414 4.5 4.80186 4.5H1C0.447715 4.5 0 4.05228 0 3.5Z" fill="black"/>
    <path fill-rule="evenodd" clip-rule="evenodd" d="M10.1981 3.5C10.1981 2.94772 10.6458 2.5 11.1981 2.5H15C15.5523 2.5 16 2.94772 16 3.5C16 4.05228 15.5523 4.5 15 4.5H11.1981C10.6458 4.5 10.1981 4.05228 10.1981 3.5Z" fill="black"/>
</svg>
