<svg width="14" height="13" viewBox="0 0 14 13" fill="none" xmlns="http://www.w3.org/2000/svg">
<path fill-rule="evenodd" clip-rule="evenodd" d="M8.95024 7.97399C10.6019 8.0697 12.4723 8.57446 12.8994 9.36701C13.034 9.61612 13.0333 9.88883 12.8987 10.134C12.6799 10.5299 12.3192 10.7482 11.8835 10.7486C11.072 10.7486 9.98912 10.0314 8.66477 8.61675C8.09254 8.59741 7.53563 8.62887 7.04346 8.70688C6.86484 8.73507 6.57427 8.77408 6.39469 8.79276C5.93378 8.84061 5.45693 8.93108 4.97656 9.06088C3.89782 11.0108 2.91253 12 2.04813 12C1.73587 12 1.45837 11.8722 1.22329 11.6198C1.02138 11.4028 0.953442 11.1226 1.03159 10.8302C1.24753 10.0226 2.72179 9.04875 4.54883 8.50268C4.64962 8.31454 4.75105 8.11722 4.8528 7.91171C5.82916 5.94017 5.77206 3.45828 5.65118 2.15474C5.60812 1.89744 5.57781 1.67193 5.55772 1.50346C5.53986 1.35662 5.52487 1.22944 5.62566 1.11111C5.68786 1.03999 5.77525 1 5.86584 1C6.14876 1 6.18895 1.27959 6.20809 1.41365C6.2317 1.58212 6.25976 1.80828 6.28528 2.08033C6.49995 3.36421 7.07472 5.78775 8.49412 7.45545C8.64946 7.63704 8.80097 7.80977 8.95024 7.97399ZM1.68407 11.1665C1.7973 11.2881 1.91277 11.3445 2.04801 11.3445C2.54878 11.3445 3.28783 10.6099 4.06005 9.35785C2.69328 9.8754 1.75807 10.5883 1.64675 11.0042C1.62761 11.0744 1.63782 11.117 1.68407 11.1665ZM6.9456 8.05982C6.77591 8.08669 6.50032 8.1234 6.32999 8.14176C6.02028 8.17322 5.70195 8.22337 5.38075 8.29089L5.42094 8.20961C5.89971 7.24301 6.19634 6.08401 6.30607 4.75555C6.74529 6.01878 7.31815 7.06962 8.01381 7.88708L8.03578 7.91297L8.0358 7.913C8.04926 7.92881 8.06284 7.94475 8.07601 7.96083C7.67443 7.97066 7.2955 8.00442 6.9456 8.05982ZM11.8701 10.0944C12.0861 10.0944 12.2366 10.0049 12.3425 9.81214C12.3693 9.76298 12.3693 9.73577 12.3419 9.68464C12.1521 9.33229 11.0941 8.88291 9.64917 8.69641C10.5828 9.60106 11.3627 10.0944 11.8698 10.0944H11.8701Z" fill="#F50C1A"/>
<path d="M12.8994 9.36701L12.4592 9.60421L12.4595 9.60471L12.8994 9.36701ZM8.95024 7.97399L8.58026 8.31031L8.71756 8.46134L8.92132 8.47315L8.95024 7.97399ZM12.8987 10.134L13.3364 10.3758L13.337 10.3746L12.8987 10.134ZM11.8835 10.7486V11.2486H11.8838L11.8835 10.7486ZM8.66477 8.61675L9.02978 8.27504L8.88841 8.12402L8.68166 8.11703L8.66477 8.61675ZM7.04346 8.70688L7.1214 9.20077L7.12174 9.20072L7.04346 8.70688ZM6.39469 8.79276L6.44632 9.29009L6.44643 9.29008L6.39469 8.79276ZM4.97656 9.06088L4.84614 8.57819L4.64161 8.63345L4.53905 8.81883L4.97656 9.06088ZM1.22329 11.6198L0.857244 11.9604L0.857413 11.9606L1.22329 11.6198ZM1.03159 10.8302L0.548556 10.701L0.548545 10.7011L1.03159 10.8302ZM4.54883 8.50268L4.69201 8.98174L4.89133 8.92217L4.98957 8.7388L4.54883 8.50268ZM4.8528 7.91171L4.40474 7.68982L4.40472 7.68986L4.8528 7.91171ZM5.65118 2.15474L6.14904 2.10857L6.14735 2.0903L6.14432 2.07221L5.65118 2.15474ZM5.55772 1.50346L6.0542 1.44424L6.05406 1.44308L5.55772 1.50346ZM5.62566 1.11111L5.24924 0.781946L5.24503 0.786886L5.62566 1.11111ZM6.20809 1.41365L6.70326 1.34427L6.70307 1.34298L6.20809 1.41365ZM6.28528 2.08033L5.78747 2.12703L5.78915 2.14499L5.79213 2.16279L6.28528 2.08033ZM8.49412 7.45545L8.11336 7.77952L8.11418 7.78048L8.49412 7.45545ZM1.68407 11.1665L2.04999 10.8258L2.04939 10.8251L1.68407 11.1665ZM4.06005 9.35785L4.48562 9.62032L5.2567 8.37007L3.88298 8.89025L4.06005 9.35785ZM1.64675 11.0042L2.12912 11.1359L2.12975 11.1335L1.64675 11.0042ZM6.32999 8.14176L6.38053 8.63921L6.38356 8.63888L6.32999 8.14176ZM6.9456 8.05982L6.86742 7.56597L6.86738 7.56597L6.9456 8.05982ZM5.38075 8.29089L4.93254 8.06929L4.47637 8.99194L5.48361 8.7802L5.38075 8.29089ZM5.42094 8.20961L4.97289 7.98768L4.97273 7.988L5.42094 8.20961ZM6.30607 4.75555L6.77834 4.59135L5.80777 4.7144L6.30607 4.75555ZM8.01381 7.88708L8.39511 7.56364L8.39459 7.56303L8.01381 7.88708ZM8.03578 7.91297L8.41824 7.5909L8.41708 7.58953L8.03578 7.91297ZM8.0358 7.913L7.65334 8.23507L7.65512 8.23716L8.0358 7.913ZM8.07601 7.96083L8.08825 8.46068L9.11152 8.43562L8.46275 7.64391L8.07601 7.96083ZM12.3425 9.81214L12.7807 10.0529L12.7816 10.0514L12.3425 9.81214ZM12.3419 9.68464L12.7825 9.44827L12.7821 9.44754L12.3419 9.68464ZM9.64917 8.69641L9.71318 8.20052L8.21999 8.00779L9.30123 9.05549L9.64917 8.69641ZM13.3395 9.12982C13.1742 8.82296 12.895 8.58583 12.5959 8.40228C12.291 8.21524 11.9266 8.06023 11.539 7.93382C10.7636 7.68094 9.83961 7.52469 8.97917 7.47482L8.92132 8.47315C9.71249 8.519 10.5495 8.66298 11.229 8.88455C11.5688 8.99537 11.8553 9.12113 12.0729 9.25463C12.2962 9.39162 12.411 9.51479 12.4592 9.60421L13.3395 9.12982ZM13.337 10.3746C13.5541 9.97922 13.5538 9.52638 13.3393 9.12932L12.4595 9.60471C12.5141 9.70586 12.5126 9.79843 12.4604 9.89337L13.337 10.3746ZM11.8838 11.2486C12.5098 11.2481 13.0337 10.9235 13.3363 10.3758L12.4611 9.89216C12.3261 10.1364 12.1286 10.2484 11.8831 10.2486L11.8838 11.2486ZM8.29976 8.95846C8.97678 9.68165 9.60844 10.2446 10.1904 10.63C10.7654 11.0108 11.3371 11.2486 11.8835 11.2486V10.2486C11.6184 10.2486 11.2429 10.1277 10.7425 9.79629C10.2491 9.46946 9.67711 8.96651 9.02978 8.27504L8.29976 8.95846ZM7.12174 9.20072C7.57864 9.1283 8.10339 9.09806 8.64788 9.11646L8.68166 8.11703C8.08169 8.09676 7.49262 8.12945 6.96519 8.21305L7.12174 9.20072ZM6.44643 9.29008C6.63609 9.27034 6.9355 9.23011 7.1214 9.20077L6.96552 8.213C6.79418 8.24003 6.51244 8.27781 6.34295 8.29544L6.44643 9.29008ZM5.10699 9.54357C5.56372 9.42015 6.0142 9.33495 6.44632 9.29009L6.34305 8.29543C5.85336 8.34628 5.35013 8.442 4.84614 8.57819L5.10699 9.54357ZM2.04813 12.5C2.67486 12.5 3.25809 12.1446 3.78618 11.6145C4.32178 11.0769 4.86399 10.2972 5.41407 9.30292L4.53905 8.81883C4.01039 9.77444 3.52058 10.4643 3.07776 10.9088C2.62742 11.3608 2.2858 11.5 2.04813 11.5V12.5ZM0.857413 11.9606C1.1762 12.3028 1.58191 12.5 2.04813 12.5V11.5C1.88982 11.5 1.74053 11.4415 1.58916 11.279L0.857413 11.9606ZM0.548545 10.7011C0.42715 11.1553 0.534981 11.6141 0.857244 11.9604L1.58933 11.2792C1.50778 11.1915 1.47973 11.0899 1.51463 10.9593L0.548545 10.7011ZM4.40565 8.02362C3.45294 8.30837 2.58139 8.70741 1.91022 9.15131C1.57467 9.37324 1.27946 9.6128 1.04805 9.86331C0.820231 10.1099 0.631146 10.3921 0.548556 10.701L1.51462 10.9593C1.54 10.8644 1.61618 10.722 1.78261 10.5419C1.94545 10.3656 2.17348 10.1761 2.46187 9.98539C3.03858 9.60396 3.81768 9.24306 4.69201 8.98174L4.40565 8.02362ZM4.40472 7.68986C4.30511 7.89104 4.20613 8.08358 4.10809 8.26656L4.98957 8.7388C5.09312 8.5455 5.197 8.3434 5.30089 8.13356L4.40472 7.68986ZM5.15331 2.20091C5.27264 3.48767 5.31592 5.84988 4.40474 7.68982L5.30087 8.1336C6.3424 6.03046 6.27149 3.4289 6.14904 2.10857L5.15331 2.20091ZM5.06124 1.56267C5.08209 1.73753 5.11346 1.97094 5.15803 2.23727L6.14432 2.07221C6.10277 1.82394 6.07353 1.60633 6.0542 1.44424L5.06124 1.56267ZM5.24503 0.786886C4.98365 1.09373 5.04693 1.44508 5.06138 1.56383L6.05406 1.44308C6.05178 1.42432 6.04999 1.40946 6.04847 1.39549C6.04699 1.38181 6.04605 1.37135 6.04547 1.3629C6.04428 1.34536 6.04513 1.34224 6.04462 1.34729C6.04395 1.35385 6.0415 1.36948 6.03348 1.38928C6.02522 1.4097 6.01473 1.42543 6.00628 1.43534L5.24503 0.786886ZM5.86584 0.5C5.62662 0.5 5.40348 0.605633 5.24927 0.781974L6.00205 1.44025C5.97224 1.47434 5.92389 1.5 5.86584 1.5V0.5ZM6.70307 1.34298C6.69512 1.28724 6.67227 1.09372 6.57368 0.915029C6.51994 0.817602 6.4361 0.708931 6.30714 0.625693C6.17485 0.540303 6.02327 0.5 5.86584 0.5V1.5C5.84987 1.5 5.80941 1.49465 5.76483 1.46587C5.72358 1.43924 5.70403 1.40885 5.69809 1.39807C5.69318 1.38917 5.69564 1.39052 5.70029 1.4098C5.7049 1.4289 5.70817 1.4497 5.71311 1.48431L6.70307 1.34298ZM6.7831 2.03364C6.75681 1.75337 6.72782 1.51962 6.70326 1.34427L5.71293 1.48302C5.73557 1.64462 5.76272 1.8632 5.78747 2.12703L6.7831 2.03364ZM8.87488 7.13138C7.54861 5.5731 6.99049 3.26616 6.77844 1.99788L5.79213 2.16279C6.0094 3.46227 6.60083 6.0024 8.11336 7.77952L8.87488 7.13138ZM9.32022 7.63766C9.17502 7.47792 9.02688 7.30906 8.87407 7.13043L8.11418 7.78048C8.27204 7.96501 8.42692 8.14162 8.58026 8.31031L9.32022 7.63766ZM2.04801 10.8445C2.04932 10.8445 2.05403 10.8447 2.06083 10.8462C2.06771 10.8478 2.0735 10.85 2.07737 10.8519C2.08498 10.8556 2.07557 10.8532 2.04999 10.8258L1.31814 11.5072C1.50297 11.7057 1.7435 11.8445 2.04801 11.8445V10.8445ZM3.63448 9.09538C3.26033 9.70203 2.9063 10.1629 2.60062 10.4652C2.44782 10.6163 2.3176 10.7174 2.21335 10.7781C2.10604 10.8406 2.05394 10.8445 2.04801 10.8445V11.8445C2.29246 11.8445 2.52054 11.7565 2.71677 11.6422C2.91606 11.526 3.11276 11.3652 3.30385 11.1762C3.68594 10.7982 4.08755 10.2658 4.48562 9.62032L3.63448 9.09538ZM2.12975 11.1335C2.12615 11.1469 2.14008 11.0968 2.24389 10.9857C2.33879 10.8842 2.48047 10.7618 2.67059 10.6279C3.04989 10.3606 3.58698 10.0716 4.23711 9.82545L3.88298 8.89025C3.16634 9.16162 2.55244 9.48784 2.09462 9.81042C1.86617 9.97137 1.66775 10.1376 1.51329 10.3029C1.36772 10.4587 1.223 10.6536 1.16375 10.875L2.12975 11.1335ZM2.04939 10.8251C2.06239 10.839 2.10744 10.8917 2.12795 10.9801C2.1477 11.0652 2.13144 11.1273 2.12912 11.1359L1.16438 10.8726C1.14292 10.9513 1.12219 11.0698 1.15382 11.2061C1.18621 11.3457 1.25949 11.4445 1.31874 11.5079L2.04939 10.8251ZM6.38356 8.63888C6.56223 8.61963 6.84603 8.58182 7.02382 8.55366L6.86738 7.56597C6.70578 7.59157 6.43841 7.62718 6.27642 7.64464L6.38356 8.63888ZM5.48361 8.7802C5.78866 8.71607 6.08951 8.66876 6.38053 8.6392L6.27945 7.64432C5.95104 7.67768 5.61523 7.73067 5.27789 7.80159L5.48361 8.7802ZM4.97273 7.988L4.93254 8.06929L5.82896 8.5125L5.86915 8.43121L4.97273 7.988ZM5.80777 4.7144C5.70204 5.99447 5.41784 7.08935 4.97289 7.98768L5.86899 8.43153C6.38157 7.39667 6.69065 6.17355 6.80437 4.79671L5.80777 4.7144ZM8.39459 7.56303C7.74763 6.8028 7.20207 5.81003 6.77834 4.59135L5.8338 4.91976C6.28851 6.22753 6.88867 7.33644 7.63303 8.21113L8.39459 7.56303ZM8.41708 7.58953L8.39511 7.56364L7.63252 8.21052L7.65448 8.23641L8.41708 7.58953ZM8.41826 7.59093L8.41823 7.59091L7.65332 8.23504L7.65335 8.23507L8.41826 7.59093ZM8.46275 7.64391C8.44608 7.62357 8.42942 7.60403 8.41649 7.58884L7.65512 8.23716C7.6691 8.25358 7.67959 8.26593 7.68928 8.27774L8.46275 7.64391ZM7.02378 8.55367C7.34991 8.50204 7.7067 8.47002 8.08825 8.46068L8.06377 7.46098C7.64217 7.4713 7.24109 7.50681 6.86742 7.56597L7.02378 8.55367ZM11.9043 9.57137C11.894 9.59018 11.8869 9.59846 11.885 9.60056C11.8836 9.60215 11.8857 9.59953 11.8914 9.59615C11.8971 9.59274 11.901 9.59176 11.9002 9.59196C11.8987 9.59232 11.8897 9.59436 11.8701 9.59436V10.5944C12.0489 10.5944 12.2334 10.5566 12.4038 10.4549C12.5738 10.3535 12.6948 10.2094 12.7807 10.0529L11.9043 9.57137ZM11.9013 9.92101C11.9003 9.91925 11.8911 9.90216 11.8821 9.87472C11.8723 9.84459 11.8628 9.80226 11.8625 9.75119C11.8621 9.6461 11.9015 9.57648 11.9035 9.57288L12.7816 10.0514C12.8103 9.99864 12.8631 9.89084 12.8625 9.74707C12.8619 9.60564 12.8098 9.49916 12.7825 9.44827L11.9013 9.92101ZM9.58516 9.1923C10.2751 9.28135 10.8614 9.43197 11.2873 9.59521C11.5009 9.67709 11.6636 9.75813 11.7756 9.82948C11.9007 9.90917 11.9153 9.94701 11.9017 9.92175L12.7821 9.44754C12.6736 9.24609 12.4848 9.09563 12.313 8.98613C12.128 8.8683 11.9004 8.75928 11.6452 8.66145C11.1334 8.46529 10.4681 8.29797 9.71318 8.20052L9.58516 9.1923ZM11.8698 9.59436C11.7592 9.59436 11.5359 9.5322 11.186 9.31164C10.85 9.09983 10.4491 8.77526 9.99711 8.33733L9.30123 9.05549C9.7829 9.52222 10.2387 9.89661 10.6528 10.1576C11.053 10.4099 11.4733 10.5944 11.8698 10.5944V9.59436ZM11.8701 9.59436H11.8698V10.5944H11.8701V9.59436Z" fill="#F50C1A"/>
</svg>
