<svg width="16" height="14" viewBox="0 0 16 14" fill="none" xmlns="http://www.w3.org/2000/svg">
<path fill-rule="evenodd" clip-rule="evenodd" d="M5.90545 0C6.34576 0 6.73618 0.267068 6.87313 0.661943L10.0945 9.95026L11.2214 6.70116C11.3584 6.30628 11.7488 6.03922 12.1891 6.03922H14.9818C15.5441 6.03922 16 6.46937 16 7C16 7.53063 15.5441 7.96078 14.9818 7.96078H12.9272L11.0622 13.3381C10.9253 13.7329 10.5349 14 10.0945 14C9.65424 14 9.26382 13.7329 9.12687 13.3381L5.90545 4.04973L4.77859 7.29884C4.64163 7.69372 4.25121 7.96078 3.81091 7.96078H1.01818C0.455855 7.96078 0 7.53063 0 7C0 6.46937 0.455855 6.03922 1.01818 6.03922H3.07281L4.93778 0.661943C5.07473 0.267068 5.46515 0 5.90545 0Z" fill="#4A4A4A"/>
</svg>
