<svg width="18" height="18" viewBox="0 0 18 18" fill="none" xmlns="http://www.w3.org/2000/svg">
<path fill-rule="evenodd" clip-rule="evenodd" d="M9 2.71429C5.5285 2.71429 2.71429 5.5285 2.71429 9C2.71429 12.4715 5.5285 15.2857 9 15.2857C12.4715 15.2857 15.2857 12.4715 15.2857 9C15.2857 5.5285 12.4715 2.71429 9 2.71429ZM1 9C1 4.58172 4.58172 1 9 1C13.4183 1 17 4.58172 17 9C17 13.4183 13.4183 17 9 17C4.58172 17 1 13.4183 1 9Z" fill="#4A4A4A"/>
<path fill-rule="evenodd" clip-rule="evenodd" d="M9.16 5.73181C8.85456 5.68051 8.54044 5.73671 8.27328 5.89047C8.00611 6.04423 7.80313 6.28562 7.70029 6.57188C7.53996 7.01819 7.04052 7.25272 6.58475 7.09572C6.12898 6.93871 5.88948 6.44964 6.04981 6.00333C6.28976 5.33538 6.76338 4.77214 7.38677 4.41337C8.01016 4.0546 8.74311 3.92346 9.45578 4.04316C10.1685 4.16287 10.8149 4.5257 11.2805 5.06739C11.7461 5.60896 12.001 6.29437 12 7.00227C11.9996 8.17047 11.1164 8.92914 10.5169 9.32049C10.1905 9.53358 9.87031 9.68974 9.63517 9.79208C9.51636 9.84379 9.41613 9.88311 9.34356 9.91018C9.3072 9.92375 9.27757 9.93432 9.25578 9.9419L9.22906 9.95107L9.22032 9.95399L9.21715 9.95503L9.21587 9.95546C9.21561 9.95554 9.21479 9.95581 8.93815 9.14311L9.21479 9.95581C8.75644 10.1054 8.26102 9.86285 8.10823 9.41401C7.95555 8.96547 8.20284 8.48066 8.66062 8.33071L8.66964 8.3276C8.6799 8.32403 8.69725 8.31786 8.7207 8.30912C8.76773 8.29158 8.83836 8.26397 8.92458 8.22644C9.09951 8.15031 9.32607 8.03877 9.54641 7.89493C10.0403 7.57248 10.2504 7.26059 10.2504 7.00148L10.2504 7.00021C10.2508 6.69675 10.1416 6.40292 9.94203 6.17076C9.74246 5.93861 9.46543 5.78311 9.16 5.73181Z" fill="#4A4A4A"/>
<path d="M10 12C10 12.5523 9.55228 13 9 13C8.44772 13 8 12.5523 8 12C8 11.4477 8.44772 11 9 11C9.55228 11 10 11.4477 10 12Z" fill="#4A4A4A"/>
</svg>
