<svg width="14" height="16" viewBox="0 0 14 16" fill="none" xmlns="http://www.w3.org/2000/svg">
<path fill-rule="evenodd" clip-rule="evenodd" d="M9.16806 0.445314C9.47441 -0.0142141 10.0953 -0.138388 10.5548 0.167964L13.5548 2.16796C13.833 2.35343 14.0001 2.66566 14.0001 3.00001C14.0001 3.33437 13.833 3.6466 13.5548 3.83207L10.5548 5.83207C10.0953 6.13842 9.47441 6.01424 9.16806 5.55471C8.8617 5.09519 8.98588 4.47432 9.44541 4.16796L11.1973 3.00001L9.44541 1.83206C8.98588 1.52571 8.8617 0.904843 9.16806 0.445314Z" fill="#4A4A4A"/>
<path fill-rule="evenodd" clip-rule="evenodd" d="M3.66667 4C2.74619 4 2 4.74619 2 5.66667V7C2 7.55228 1.55228 8 1 8C0.447715 8 0 7.55228 0 7V5.66667C0 3.64162 1.64162 2 3.66667 2H13C13.5523 2 14 2.44772 14 3C14 3.55228 13.5523 4 13 4H3.66667Z" fill="#4A4A4A"/>
<path fill-rule="evenodd" clip-rule="evenodd" d="M4.83205 10.4453C5.1384 10.9048 5.01423 11.5257 4.5547 11.8321L2.80278 13L4.5547 14.168C5.01423 14.4743 5.1384 15.0952 4.83205 15.5547C4.5257 16.0142 3.90483 16.1384 3.4453 15.8321L0.4453 13.8321C0.167101 13.6466 0 13.3344 0 13C0 12.6657 0.167101 12.3534 0.4453 12.168L3.4453 10.168C3.90483 9.86161 4.5257 9.98579 4.83205 10.4453Z" fill="#4A4A4A"/>
<path fill-rule="evenodd" clip-rule="evenodd" d="M13 8C13.5523 8 14 8.44772 14 9V10.3333C14 12.3584 12.3584 14 10.3333 14H1C0.447715 14 0 13.5523 0 13C0 12.4477 0.447715 12 1 12H10.3333C11.2538 12 12 11.2538 12 10.3333V9C12 8.44772 12.4477 8 13 8Z" fill="#4A4A4A"/>
</svg>
