<svg width="15" height="18" viewBox="0 0 15 18" fill="none" xmlns="http://www.w3.org/2000/svg">
    <path fill-rule="evenodd" clip-rule="evenodd" d="M1 8C1.55228 8 2 8.44772 2 9V15.4C2 15.7168 2.26515 16 2.625 16H12.375C12.7349 16 13 15.7168 13 15.4V9C13 8.44772 13.4477 8 14 8C14.5523 8 15 8.44772 15 9V15.4C15 16.8505 13.8101 18 12.375 18H2.625C1.18993 18 0 16.8505 0 15.4V9C0 8.44772 0.447715 8 1 8Z" fill="black"/>
    <path fill-rule="evenodd" clip-rule="evenodd" d="M6.7984 0.287433C7.18763 -0.0958111 7.81237 -0.0958111 8.2016 0.287433L11.4516 3.48743C11.8451 3.87492 11.8501 4.50806 11.4626 4.9016C11.0751 5.29514 10.4419 5.30005 10.0484 4.91257L7.5 2.40338L4.9516 4.91257C4.55806 5.30005 3.92492 5.29514 3.53743 4.9016C3.14995 4.50806 3.15486 3.87492 3.5484 3.48743L6.7984 0.287433Z" fill="black"/>
    <path fill-rule="evenodd" clip-rule="evenodd" d="M7.5 0C8.05228 0 8.5 0.447715 8.5 1V11.4C8.5 11.9523 8.05228 12.4 7.5 12.4C6.94772 12.4 6.5 11.9523 6.5 11.4V1C6.5 0.447715 6.94772 0 7.5 0Z" fill="black"/>
</svg>
