<svg width="14" height="16" viewBox="0 0 14 16" fill="none" xmlns="http://www.w3.org/2000/svg">
<path fill-rule="evenodd" clip-rule="evenodd" d="M0 13.3333C0 11.0418 1.69436 9 4 9H10C12.3056 9 14 11.0418 14 13.3333V15C14 15.5523 13.5523 16 13 16C12.4477 16 12 15.5523 12 15V13.3333C12 11.943 11.0081 11 10 11H4C2.99193 11 2 11.943 2 13.3333V15C2 15.5523 1.55228 16 1 16C0.447715 16 0 15.5523 0 15V13.3333Z" fill="#4A4A4A"/>
<path fill-rule="evenodd" clip-rule="evenodd" d="M3 4C3 1.79086 4.79086 0 7 0C9.20914 0 11 1.79086 11 4C11 6.20914 9.20914 8 7 8C4.79086 8 3 6.20914 3 4ZM7 2C5.89543 2 5 2.89543 5 4C5 5.10457 5.89543 6 7 6C8.10457 6 9 5.10457 9 4C9 2.89543 8.10457 2 7 2Z" fill="#4A4A4A"/>
</svg>
