<svg width="18" height="16" viewBox="0 0 18 16" fill="none" xmlns="http://www.w3.org/2000/svg">
<path fill-rule="evenodd" clip-rule="evenodd" d="M1.13991 10.3435C1.86978 9.61752 2.8597 9.20969 3.89189 9.20969H9C10.0322 9.20969 11.0221 9.61752 11.752 10.3435C12.4819 11.0694 12.8919 12.054 12.8919 13.0807V14.5323C12.8919 15.0667 12.4563 15.5 11.9189 15.5C11.3816 15.5 10.9459 15.0667 10.9459 14.5323V13.0807C10.9459 12.5673 10.7409 12.075 10.376 11.7121C10.0111 11.3491 9.5161 11.1452 9 11.1452H3.89189C3.3758 11.1452 2.88084 11.3491 2.5159 11.7121C2.15096 12.075 1.94595 12.5673 1.94595 13.0807V14.5323C1.94595 15.0667 1.51033 15.5 0.972973 15.5C0.435615 15.5 0 15.0667 0 14.5323V13.0807C0 12.054 0.410038 11.0694 1.13991 10.3435Z" fill="#4A4A4A"/>
<path fill-rule="evenodd" clip-rule="evenodd" d="M6.44609 2.43548C5.37137 2.43548 4.50014 3.30203 4.50014 4.37097C4.50014 5.43991 5.37137 6.30645 6.44609 6.30645C7.52081 6.30645 8.39204 5.43991 8.39204 4.37097C8.39204 3.30203 7.52081 2.43548 6.44609 2.43548ZM2.5542 4.37097C2.5542 2.23309 4.29666 0.5 6.44609 0.5C8.59552 0.5 10.338 2.23309 10.338 4.37097C10.338 6.50884 8.59552 8.24194 6.44609 8.24194C4.29666 8.24194 2.5542 6.50884 2.5542 4.37097Z" fill="#4A4A4A"/>
<path fill-rule="evenodd" clip-rule="evenodd" d="M14.8377 4.12903C15.3751 4.12903 15.8107 4.5623 15.8107 5.09677V9.45161C15.8107 9.98608 15.3751 10.4194 14.8377 10.4194C14.3004 10.4194 13.8647 9.98608 13.8647 9.45161V5.09677C13.8647 4.5623 14.3004 4.12903 14.8377 4.12903Z" fill="#4A4A4A"/>
<path fill-rule="evenodd" clip-rule="evenodd" d="M11.6758 7.2742C11.6758 6.73973 12.1114 6.30646 12.6488 6.30646H17.0271C17.5645 6.30646 18.0001 6.73973 18.0001 7.2742C18.0001 7.80867 17.5645 8.24194 17.0271 8.24194H12.6488C12.1114 8.24194 11.6758 7.80867 11.6758 7.2742Z" fill="#4A4A4A"/>
</svg>
