<svg width="21" height="14" viewBox="0 0 21 14" fill="none" xmlns="http://www.w3.org/2000/svg">
    <path fill-rule="evenodd" clip-rule="evenodd" d="M13.4 5.70001L19.4 1.20001L20 2.00001H21V11C21 11.3788 20.786 11.725 20.4472 11.8944C20.1084 12.0638 19.703 12.0273 19.4 11.8L13.4 7.30001C13.1482 7.11116 13 6.81477 13 6.50001C13 6.18526 13.1482 5.88887 13.4 5.70001ZM19 4.00001L15.6667 6.50001L19 9.00001V4.00001Z" fill="black"/>
    <path fill-rule="evenodd" clip-rule="evenodd" d="M0 3C0 1.34315 1.34315 0 3 0H12C13.6569 0 15 1.34315 15 3V11C15 12.6569 13.6569 14 12 14H3C1.34315 14 0 12.6569 0 11V3ZM3 2C2.44772 2 2 2.44772 2 3V11C2 11.5523 2.44772 12 3 12H12C12.5523 12 13 11.5523 13 11V3C13 2.44772 12.5523 2 12 2H3Z" fill="black"/>
</svg>
